<mxfile host="65bd71144e">
    <diagram id="8UD5d60HDsAUgDDDRMJ2" name="Page-1">
        <mxGraphModel dx="6060" dy="5720" grid="1" gridSize="10" guides="1" tooltips="1" connect="1" arrows="1" fold="1" page="1" pageScale="1" pageWidth="850" pageHeight="1100" math="0" shadow="0">
            <root>
                <mxCell id="0"/>
                <mxCell id="1" parent="0"/>
                <mxCell id="2" value="&lt;div&gt;&lt;b&gt;@base&lt;/b&gt;: http://base.uri#&lt;/div&gt;&lt;div&gt;&lt;b style=&quot;background-color: initial;&quot;&gt;rr&lt;/b&gt;&lt;span style=&quot;background-color: initial;&quot;&gt;: http://www.w3.org/ns/r2rml#&lt;/span&gt;&lt;br&gt;&lt;/div&gt;&lt;div&gt;&lt;div style=&quot;border-color: var(--border-color);&quot;&gt;&lt;b&gt;rml&lt;/b&gt;: http://semweb.mmlab.be/ns/rml#&lt;/div&gt;&lt;div style=&quot;border-color: var(--border-color);&quot;&gt;&lt;div style=&quot;line-height: 19px;&quot;&gt;&lt;div style=&quot;&quot;&gt;&lt;b&gt;ql&lt;/b&gt;: http://semweb.mmlab.be/ns/ql#&lt;/div&gt;&lt;div style=&quot;&quot;&gt;&lt;/div&gt;&lt;/div&gt;&lt;/div&gt;&lt;div style=&quot;border-color: var(--border-color);&quot;&gt;&lt;b&gt;rdf&lt;/b&gt;: http://www.w3.org/1999/02/22-rdf-syntax-ns#&lt;/div&gt;&lt;div style=&quot;border-color: var(--border-color);&quot;&gt;&lt;b&gt;rdfs&lt;/b&gt;: http://www.w3.org/2000/01/rdf-schema#&lt;/div&gt;&lt;div style=&quot;border-color: var(--border-color);&quot;&gt;&lt;span style=&quot;background-color: initial;&quot;&gt;&lt;b&gt;owl&lt;/b&gt;: http://www.w3.org/2002/07/owl#&lt;/span&gt;&lt;br&gt;&lt;/div&gt;&lt;div style=&quot;border-color: var(--border-color);&quot;&gt;&lt;b&gt;skos&lt;/b&gt;: http://www.w3.org/2004/02/skos/core#&lt;/div&gt;&lt;div style=&quot;border-color: var(--border-color);&quot;&gt;&lt;b&gt;xml&lt;/b&gt;: http://www.w3.org/XML/1998/namespace&lt;/div&gt;&lt;div style=&quot;border-color: var(--border-color);&quot;&gt;&lt;b&gt;xsd&lt;/b&gt;: http://www.w3.org/2001/XMLSchema#&lt;/div&gt;&lt;div style=&quot;border-color: var(--border-color);&quot;&gt;&lt;span style=&quot;background-color: initial;&quot;&gt;&lt;b&gt;wgs&lt;/b&gt;: http://www.w3.org/2003/01/geo/wgs84_pos#&lt;/span&gt;&lt;br&gt;&lt;/div&gt;&lt;div style=&quot;border-color: var(--border-color);&quot;&gt;&lt;b style=&quot;background-color: initial;&quot;&gt;geo&lt;/b&gt;&lt;span style=&quot;background-color: initial;&quot;&gt;: http://www.opengis.net/ont/geosparql#&lt;/span&gt;&lt;br&gt;&lt;/div&gt;&lt;div style=&quot;border-color: var(--border-color);&quot;&gt;&lt;div style=&quot;line-height: 19px;&quot;&gt;&lt;b&gt;saref&lt;/b&gt;: https://saref.etsi.org/core/&lt;/div&gt;&lt;div style=&quot;line-height: 19px;&quot;&gt;&lt;div style=&quot;line-height: 19px;&quot;&gt;&lt;b&gt;s4city&lt;/b&gt;: https://saref.etsi.org/saref4city/&lt;/div&gt;&lt;div style=&quot;line-height: 19px;&quot;&gt;&lt;div style=&quot;line-height: 19px;&quot;&gt;&lt;b style=&quot;border-color: var(--border-color); background-color: initial;&quot;&gt;unit&lt;/b&gt;&lt;span style=&quot;border-color: var(--border-color); background-color: initial;&quot;&gt;:&lt;/span&gt;&lt;span style=&quot;border-color: var(--border-color); background-color: initial;&quot;&gt;&amp;nbsp;&lt;/span&gt;&lt;span style=&quot;border-color: var(--border-color); background-color: initial;&quot;&gt;http://qudt.org/vocab/unit/&lt;/span&gt;&lt;br&gt;&lt;/div&gt;&lt;div style=&quot;line-height: 19px;&quot;&gt;&lt;div style=&quot;border-color: var(--border-color); line-height: 19px;&quot;&gt;&lt;b style=&quot;border-color: var(--border-color); background-color: initial;&quot;&gt;time&lt;/b&gt;&lt;span style=&quot;border-color: var(--border-color); background-color: initial;&quot;&gt;: http://www.w3.org/2006/time#&lt;/span&gt;&lt;/div&gt;&lt;/div&gt;&lt;/div&gt;&lt;/div&gt;&lt;/div&gt;&lt;div style=&quot;border-color: var(--border-color);&quot;&gt;&lt;div style=&quot;border-color: var(--border-color);&quot;&gt;&lt;b style=&quot;border-color: var(--border-color);&quot;&gt;usage-o&lt;/b&gt;: http://w3id.org/def/usage#&lt;/div&gt;&lt;/div&gt;&lt;div style=&quot;border-color: var(--border-color);&quot;&gt;&lt;span style=&quot;background-color: initial;&quot;&gt;&lt;b&gt;usage-g&lt;/b&gt;: http://w3id.org/def/usage/graph/&lt;/span&gt;&lt;br&gt;&lt;/div&gt;&lt;/div&gt;" style="shape=note;whiteSpace=wrap;html=1;backgroundOutline=1;darkOpacity=0.05;" parent="1" vertex="1">
                    <mxGeometry x="1247.5" y="-1040" width="410" height="300" as="geometry"/>
                </mxCell>
                <mxCell id="4" value="&lt;div style=&quot;line-height: 19px;&quot;&gt;rr:TriplesMap&lt;/div&gt;" style="rounded=0;whiteSpace=wrap;html=1;snapToPoint=1;points=[[0.1,0],[0.2,0],[0.3,0],[0.4,0],[0.5,0],[0.6,0],[0.7,0],[0.8,0],[0.9,0],[0,0.1],[0,0.3],[0,0.5],[0,0.7],[0,0.9],[0.1,1],[0.2,1],[0.3,1],[0.4,1],[0.5,1],[0.6,1],[0.7,1],[0.8,1],[0.9,1],[1,0.1],[1,0.3],[1,0.5],[1,0.7],[1,0.9]];" parent="1" vertex="1">
                    <mxGeometry x="115" y="-1020" width="100" height="30" as="geometry"/>
                </mxCell>
                <mxCell id="5" value="&lt;u&gt;&amp;lt;#Cell&amp;gt;&lt;/u&gt;" style="rounded=0;whiteSpace=wrap;html=1;snapToPoint=1;points=[[0.1,0],[0.2,0],[0.3,0],[0.4,0],[0.5,0],[0.6,0],[0.7,0],[0.8,0],[0.9,0],[0,0.1],[0,0.3],[0,0.5],[0,0.7],[0,0.9],[0.1,1],[0.2,1],[0.3,1],[0.4,1],[0.5,1],[0.6,1],[0.7,1],[0.8,1],[0.9,1],[1,0.1],[1,0.3],[1,0.5],[1,0.7],[1,0.9]];" parent="1" vertex="1">
                    <mxGeometry x="115" y="-990" width="100" height="30" as="geometry"/>
                </mxCell>
                <mxCell id="9" value="" style="endArrow=classic;html=1;exitX=0.5;exitY=1;exitDx=0;exitDy=0;entryX=0;entryY=0.5;entryDx=0;entryDy=0;endSize=8;edgeStyle=orthogonalEdgeStyle;rounded=0;" parent="1" source="5" target="13" edge="1">
                    <mxGeometry width="50" height="50" relative="1" as="geometry">
                        <mxPoint x="213.00000000000045" y="-855" as="sourcePoint"/>
                        <mxPoint x="340" y="-925" as="targetPoint"/>
                    </mxGeometry>
                </mxCell>
                <mxCell id="10" value="&lt;span style=&quot;background-color: rgb(251, 251, 251);&quot;&gt;rml:logicalSource&lt;/span&gt;" style="text;html=1;align=center;verticalAlign=middle;resizable=0;points=[];labelBackgroundColor=#ffffff;" parent="9" vertex="1" connectable="0">
                    <mxGeometry x="-0.1269" relative="1" as="geometry">
                        <mxPoint as="offset"/>
                    </mxGeometry>
                </mxCell>
                <mxCell id="11" value="&lt;div style=&quot;line-height: 19px;&quot;&gt;&lt;div style=&quot;line-height: 19px;&quot;&gt;ql:CSV&lt;/div&gt;&lt;/div&gt;" style="rounded=0;whiteSpace=wrap;html=1;snapToPoint=1;points=[[0.1,0],[0.2,0],[0.3,0],[0.4,0],[0.5,0],[0.6,0],[0.7,0],[0.8,0],[0.9,0],[0,0.1],[0,0.3],[0,0.5],[0,0.7],[0,0.9],[0.1,1],[0.2,1],[0.3,1],[0.4,1],[0.5,1],[0.6,1],[0.7,1],[0.8,1],[0.9,1],[1,0.1],[1,0.3],[1,0.5],[1,0.7],[1,0.9]];fontStyle=4" parent="1" vertex="1">
                    <mxGeometry x="565" y="-960" width="70" height="30" as="geometry"/>
                </mxCell>
                <mxCell id="13" value="_b1" style="rounded=0;whiteSpace=wrap;html=1;snapToPoint=1;points=[[0.1,0],[0.2,0],[0.3,0],[0.4,0],[0.5,0],[0.6,0],[0.7,0],[0.8,0],[0.9,0],[0,0.1],[0,0.3],[0,0.5],[0,0.7],[0,0.9],[0.1,1],[0.2,1],[0.3,1],[0.4,1],[0.5,1],[0.6,1],[0.7,1],[0.8,1],[0.9,1],[1,0.1],[1,0.3],[1,0.5],[1,0.7],[1,0.9]];fontStyle=4" parent="1" vertex="1">
                    <mxGeometry x="335" y="-959.9999999999998" width="60" height="30" as="geometry"/>
                </mxCell>
                <mxCell id="19" value="rml:source" style="edgeStyle=orthogonalEdgeStyle;rounded=0;orthogonalLoop=1;jettySize=auto;html=1;fontSize=12;entryX=0;entryY=0.5;entryDx=0;entryDy=0;" parent="1" source="13" target="20" edge="1">
                    <mxGeometry x="0.3115" relative="1" as="geometry">
                        <mxPoint x="435" y="-945.4999999999998" as="sourcePoint"/>
                        <mxPoint x="575" y="-945.5" as="targetPoint"/>
                        <Array as="points">
                            <mxPoint x="365" y="-985"/>
                        </Array>
                        <mxPoint as="offset"/>
                    </mxGeometry>
                </mxCell>
                <mxCell id="20" value="&quot;./data/ZGZ/Arbolado/refined/BBDD_Arbolado_2021.csv&quot;" style="rounded=0;whiteSpace=wrap;html=1;snapToPoint=1;" parent="1" vertex="1">
                    <mxGeometry x="485" y="-1000" width="510" height="30" as="geometry"/>
                </mxCell>
                <mxCell id="21" value="rml:referenceFormulation" style="rounded=0;orthogonalLoop=1;jettySize=auto;html=1;fontSize=12;" parent="1" source="13" target="11" edge="1">
                    <mxGeometry relative="1" as="geometry">
                        <mxPoint x="395" y="-904.9999999999998" as="sourcePoint"/>
                        <mxPoint x="555" y="-904.9999999999998" as="targetPoint"/>
                    </mxGeometry>
                </mxCell>
                <mxCell id="23" value="" style="endArrow=classic;html=1;exitX=0.5;exitY=1;exitDx=0;exitDy=0;endSize=8;rounded=0;entryX=0;entryY=0.5;entryDx=0;entryDy=0;edgeStyle=orthogonalEdgeStyle;" parent="1" source="5" target="26" edge="1">
                    <mxGeometry width="50" height="50" relative="1" as="geometry">
                        <mxPoint x="175" y="-860" as="sourcePoint"/>
                        <mxPoint x="305" y="-890" as="targetPoint"/>
                    </mxGeometry>
                </mxCell>
                <mxCell id="24" value="&lt;span style=&quot;background-color: rgb(251, 251, 251);&quot;&gt;rr:subjectMap&lt;/span&gt;" style="text;html=1;align=center;verticalAlign=middle;resizable=0;points=[];labelBackgroundColor=#ffffff;" parent="23" vertex="1" connectable="0">
                    <mxGeometry x="-0.1269" relative="1" as="geometry">
                        <mxPoint x="45" as="offset"/>
                    </mxGeometry>
                </mxCell>
                <mxCell id="25" value="&lt;div style=&quot;line-height: 19px;&quot;&gt;&lt;div style=&quot;line-height: 19px;&quot;&gt;usage-o:Cell&lt;/div&gt;&lt;/div&gt;" style="rounded=0;whiteSpace=wrap;html=1;snapToPoint=1;points=[[0.1,0],[0.2,0],[0.3,0],[0.4,0],[0.5,0],[0.6,0],[0.7,0],[0.8,0],[0.9,0],[0,0.1],[0,0.3],[0,0.5],[0,0.7],[0,0.9],[0.1,1],[0.2,1],[0.3,1],[0.4,1],[0.5,1],[0.6,1],[0.7,1],[0.8,1],[0.9,1],[1,0.1],[1,0.3],[1,0.5],[1,0.7],[1,0.9]];fontStyle=4" parent="1" vertex="1">
                    <mxGeometry x="565" y="-870" width="100" height="30" as="geometry"/>
                </mxCell>
                <mxCell id="26" value="_b2" style="rounded=0;whiteSpace=wrap;html=1;snapToPoint=1;points=[[0.1,0],[0.2,0],[0.3,0],[0.4,0],[0.5,0],[0.6,0],[0.7,0],[0.8,0],[0.9,0],[0,0.1],[0,0.3],[0,0.5],[0,0.7],[0,0.9],[0.1,1],[0.2,1],[0.3,1],[0.4,1],[0.5,1],[0.6,1],[0.7,1],[0.8,1],[0.9,1],[1,0.1],[1,0.3],[1,0.5],[1,0.7],[1,0.9]];fontStyle=4" parent="1" vertex="1">
                    <mxGeometry x="335" y="-869.9999999999998" width="60" height="30" as="geometry"/>
                </mxCell>
                <mxCell id="27" value="rr:template" style="edgeStyle=orthogonalEdgeStyle;rounded=0;orthogonalLoop=1;jettySize=auto;html=1;fontSize=12;entryX=0;entryY=0.5;entryDx=0;entryDy=0;" parent="1" source="26" target="28" edge="1">
                    <mxGeometry x="0.3115" relative="1" as="geometry">
                        <mxPoint x="435" y="-855.4999999999998" as="sourcePoint"/>
                        <mxPoint x="575" y="-855.5" as="targetPoint"/>
                        <Array as="points">
                            <mxPoint x="365" y="-895"/>
                        </Array>
                        <mxPoint as="offset"/>
                    </mxGeometry>
                </mxCell>
                <mxCell id="28" value="&quot;http://w3id.org/def/usage/resource/Cell/ZGZ-id-{ID_CELDA}&quot;" style="rounded=0;whiteSpace=wrap;html=1;snapToPoint=1;" parent="1" vertex="1">
                    <mxGeometry x="485" y="-910" width="380" height="30" as="geometry"/>
                </mxCell>
                <mxCell id="29" value="rr:class" style="rounded=0;orthogonalLoop=1;jettySize=auto;html=1;fontSize=12;" parent="1" source="26" target="25" edge="1">
                    <mxGeometry relative="1" as="geometry">
                        <mxPoint x="395" y="-814.9999999999998" as="sourcePoint"/>
                        <mxPoint x="555" y="-814.9999999999998" as="targetPoint"/>
                    </mxGeometry>
                </mxCell>
                <mxCell id="30" value="&lt;div style=&quot;line-height: 19px;&quot;&gt;&lt;div style=&quot;line-height: 19px;&quot;&gt;usage-g:ZGZ-Arbolado&lt;/div&gt;&lt;/div&gt;" style="rounded=0;whiteSpace=wrap;html=1;snapToPoint=1;points=[[0.1,0],[0.2,0],[0.3,0],[0.4,0],[0.5,0],[0.6,0],[0.7,0],[0.8,0],[0.9,0],[0,0.1],[0,0.3],[0,0.5],[0,0.7],[0,0.9],[0.1,1],[0.2,1],[0.3,1],[0.4,1],[0.5,1],[0.6,1],[0.7,1],[0.8,1],[0.9,1],[1,0.1],[1,0.3],[1,0.5],[1,0.7],[1,0.9]];fontStyle=4" parent="1" vertex="1">
                    <mxGeometry x="565" y="-820" width="225" height="30" as="geometry"/>
                </mxCell>
                <mxCell id="31" value="rr:graph" style="rounded=0;orthogonalLoop=1;jettySize=auto;html=1;fontSize=12;exitX=0.5;exitY=1;exitDx=0;exitDy=0;edgeStyle=orthogonalEdgeStyle;" parent="1" source="26" target="30" edge="1">
                    <mxGeometry relative="1" as="geometry">
                        <mxPoint x="365.0005882352941" y="-805" as="sourcePoint"/>
                        <mxPoint x="525.53" y="-764.9999999999998" as="targetPoint"/>
                        <Array as="points">
                            <mxPoint x="365" y="-805"/>
                        </Array>
                    </mxGeometry>
                </mxCell>
                <mxCell id="45" value="&lt;div style=&quot;line-height: 19px;&quot;&gt;rr:TriplesMap&lt;/div&gt;" style="rounded=0;whiteSpace=wrap;html=1;snapToPoint=1;points=[[0.1,0],[0.2,0],[0.3,0],[0.4,0],[0.5,0],[0.6,0],[0.7,0],[0.8,0],[0.9,0],[0,0.1],[0,0.3],[0,0.5],[0,0.7],[0,0.9],[0.1,1],[0.2,1],[0.3,1],[0.4,1],[0.5,1],[0.6,1],[0.7,1],[0.8,1],[0.9,1],[1,0.1],[1,0.3],[1,0.5],[1,0.7],[1,0.9]];" parent="1" vertex="1">
                    <mxGeometry x="80" y="70" width="100" height="30" as="geometry"/>
                </mxCell>
                <mxCell id="46" value="&lt;u&gt;&amp;lt;#CO2_ALC1&amp;gt;&lt;/u&gt;" style="rounded=0;whiteSpace=wrap;html=1;snapToPoint=1;points=[[0.1,0],[0.2,0],[0.3,0],[0.4,0],[0.5,0],[0.6,0],[0.7,0],[0.8,0],[0.9,0],[0,0.1],[0,0.3],[0,0.5],[0,0.7],[0,0.9],[0.1,1],[0.2,1],[0.3,1],[0.4,1],[0.5,1],[0.6,1],[0.7,1],[0.8,1],[0.9,1],[1,0.1],[1,0.3],[1,0.5],[1,0.7],[1,0.9]];" parent="1" vertex="1">
                    <mxGeometry x="80" y="100" width="100" height="30" as="geometry"/>
                </mxCell>
                <mxCell id="47" value="" style="endArrow=classic;html=1;exitX=1;exitY=0.5;exitDx=0;exitDy=0;entryX=0;entryY=0.5;entryDx=0;entryDy=0;endSize=8;edgeStyle=orthogonalEdgeStyle;rounded=0;" parent="1" source="46" target="50" edge="1">
                    <mxGeometry width="50" height="50" relative="1" as="geometry">
                        <mxPoint x="178.00000000000045" y="235" as="sourcePoint"/>
                        <mxPoint x="305" y="165" as="targetPoint"/>
                    </mxGeometry>
                </mxCell>
                <mxCell id="48" value="&lt;span style=&quot;background-color: rgb(251, 251, 251);&quot;&gt;rml:logicalSource&lt;/span&gt;" style="text;html=1;align=center;verticalAlign=middle;resizable=0;points=[];labelBackgroundColor=#ffffff;" parent="47" vertex="1" connectable="0">
                    <mxGeometry x="-0.1269" relative="1" as="geometry">
                        <mxPoint as="offset"/>
                    </mxGeometry>
                </mxCell>
                <mxCell id="50" value="_b1" style="rounded=0;whiteSpace=wrap;html=1;snapToPoint=1;points=[[0.1,0],[0.2,0],[0.3,0],[0.4,0],[0.5,0],[0.6,0],[0.7,0],[0.8,0],[0.9,0],[0,0.1],[0,0.3],[0,0.5],[0,0.7],[0,0.9],[0.1,1],[0.2,1],[0.3,1],[0.4,1],[0.5,1],[0.6,1],[0.7,1],[0.8,1],[0.9,1],[1,0.1],[1,0.3],[1,0.5],[1,0.7],[1,0.9]];fontStyle=4" parent="1" vertex="1">
                    <mxGeometry x="300" y="100.00000000000023" width="60" height="30" as="geometry"/>
                </mxCell>
                <mxCell id="54" value="" style="endArrow=classic;html=1;exitX=0.5;exitY=1;exitDx=0;exitDy=0;endSize=8;rounded=0;entryX=0;entryY=0.5;entryDx=0;entryDy=0;edgeStyle=orthogonalEdgeStyle;" parent="1" source="46" target="57" edge="1">
                    <mxGeometry width="50" height="50" relative="1" as="geometry">
                        <mxPoint x="140" y="230" as="sourcePoint"/>
                        <mxPoint x="270" y="200" as="targetPoint"/>
                    </mxGeometry>
                </mxCell>
                <mxCell id="55" value="&lt;span style=&quot;background-color: rgb(251, 251, 251);&quot;&gt;rr:subjectMap&lt;/span&gt;" style="text;html=1;align=center;verticalAlign=middle;resizable=0;points=[];labelBackgroundColor=#ffffff;" parent="54" vertex="1" connectable="0">
                    <mxGeometry x="-0.1269" relative="1" as="geometry">
                        <mxPoint x="45" as="offset"/>
                    </mxGeometry>
                </mxCell>
                <mxCell id="56" value="&lt;div style=&quot;line-height: 19px;&quot;&gt;&lt;div style=&quot;line-height: 19px;&quot;&gt;s4city:KeyPerformanceIndicatorAssessment&lt;/div&gt;&lt;/div&gt;" style="rounded=0;whiteSpace=wrap;html=1;snapToPoint=1;points=[[0.1,0],[0.2,0],[0.3,0],[0.4,0],[0.5,0],[0.6,0],[0.7,0],[0.8,0],[0.9,0],[0,0.1],[0,0.3],[0,0.5],[0,0.7],[0,0.9],[0.1,1],[0.2,1],[0.3,1],[0.4,1],[0.5,1],[0.6,1],[0.7,1],[0.8,1],[0.9,1],[1,0.1],[1,0.3],[1,0.5],[1,0.7],[1,0.9]];fontStyle=4" parent="1" vertex="1">
                    <mxGeometry x="530" y="180" width="260" height="30" as="geometry"/>
                </mxCell>
                <mxCell id="57" value="_b11" style="rounded=0;whiteSpace=wrap;html=1;snapToPoint=1;points=[[0.1,0],[0.2,0],[0.3,0],[0.4,0],[0.5,0],[0.6,0],[0.7,0],[0.8,0],[0.9,0],[0,0.1],[0,0.3],[0,0.5],[0,0.7],[0,0.9],[0.1,1],[0.2,1],[0.3,1],[0.4,1],[0.5,1],[0.6,1],[0.7,1],[0.8,1],[0.9,1],[1,0.1],[1,0.3],[1,0.5],[1,0.7],[1,0.9]];fontStyle=4" parent="1" vertex="1">
                    <mxGeometry x="300" y="180.00000000000023" width="60" height="30" as="geometry"/>
                </mxCell>
                <mxCell id="58" value="rr:template" style="edgeStyle=orthogonalEdgeStyle;rounded=0;orthogonalLoop=1;jettySize=auto;html=1;fontSize=12;entryX=0;entryY=0.5;entryDx=0;entryDy=0;" parent="1" source="57" target="59" edge="1">
                    <mxGeometry x="0.3115" relative="1" as="geometry">
                        <mxPoint x="400" y="194.50000000000023" as="sourcePoint"/>
                        <mxPoint x="540" y="194.5" as="targetPoint"/>
                        <Array as="points">
                            <mxPoint x="330" y="155"/>
                        </Array>
                        <mxPoint as="offset"/>
                    </mxGeometry>
                </mxCell>
                <mxCell id="59" value="&quot;http://w3id.org/def/usage/resource/KeyPerformanceIndicatorAssessment/CO2Scope1Emissions/UrbanWoodland/ZGZ-id-{ID_CELDA}-y-{AÑO}&quot;" style="rounded=0;whiteSpace=wrap;html=1;snapToPoint=1;" parent="1" vertex="1">
                    <mxGeometry x="450" y="140" width="670" height="30" as="geometry"/>
                </mxCell>
                <mxCell id="60" value="rr:class" style="rounded=0;orthogonalLoop=1;jettySize=auto;html=1;fontSize=12;" parent="1" source="57" target="56" edge="1">
                    <mxGeometry relative="1" as="geometry">
                        <mxPoint x="360" y="235.00000000000023" as="sourcePoint"/>
                        <mxPoint x="520" y="235.00000000000023" as="targetPoint"/>
                    </mxGeometry>
                </mxCell>
                <mxCell id="61" value="&lt;div style=&quot;line-height: 19px;&quot;&gt;&lt;div style=&quot;line-height: 19px;&quot;&gt;usage-g:ZGZ-Arbolado&lt;/div&gt;&lt;/div&gt;" style="rounded=0;whiteSpace=wrap;html=1;snapToPoint=1;points=[[0.1,0],[0.2,0],[0.3,0],[0.4,0],[0.5,0],[0.6,0],[0.7,0],[0.8,0],[0.9,0],[0,0.1],[0,0.3],[0,0.5],[0,0.7],[0,0.9],[0.1,1],[0.2,1],[0.3,1],[0.4,1],[0.5,1],[0.6,1],[0.7,1],[0.8,1],[0.9,1],[1,0.1],[1,0.3],[1,0.5],[1,0.7],[1,0.9]];fontStyle=4" parent="1" vertex="1">
                    <mxGeometry x="530" y="230" width="90" height="30" as="geometry"/>
                </mxCell>
                <mxCell id="62" value="rr:graph" style="rounded=0;orthogonalLoop=1;jettySize=auto;html=1;fontSize=12;exitX=0.5;exitY=1;exitDx=0;exitDy=0;edgeStyle=orthogonalEdgeStyle;" parent="1" source="57" target="61" edge="1">
                    <mxGeometry relative="1" as="geometry">
                        <mxPoint x="330.0005882352941" y="245" as="sourcePoint"/>
                        <mxPoint x="490.53" y="285.0000000000002" as="targetPoint"/>
                        <Array as="points">
                            <mxPoint x="330" y="245"/>
                        </Array>
                    </mxGeometry>
                </mxCell>
                <mxCell id="63" value="&lt;div style=&quot;line-height: 19px;&quot;&gt;&lt;div style=&quot;line-height: 19px;&quot;&gt;&quot;CO2_ALC1&quot;&lt;/div&gt;&lt;/div&gt;" style="rounded=0;whiteSpace=wrap;html=1;snapToPoint=1;points=[[0.1,0],[0.2,0],[0.3,0],[0.4,0],[0.5,0],[0.6,0],[0.7,0],[0.8,0],[0.9,0],[0,0.1],[0,0.3],[0,0.5],[0,0.7],[0,0.9],[0.1,1],[0.2,1],[0.3,1],[0.4,1],[0.5,1],[0.6,1],[0.7,1],[0.8,1],[0.9,1],[1,0.1],[1,0.3],[1,0.5],[1,0.7],[1,0.9]];" parent="1" vertex="1">
                    <mxGeometry x="640" y="340" width="80" height="30" as="geometry"/>
                </mxCell>
                <mxCell id="64" value="_b12" style="rounded=0;whiteSpace=wrap;html=1;snapToPoint=1;points=[[0.1,0],[0.2,0],[0.3,0],[0.4,0],[0.5,0],[0.6,0],[0.7,0],[0.8,0],[0.9,0],[0,0.1],[0,0.3],[0,0.5],[0,0.7],[0,0.9],[0.1,1],[0.2,1],[0.3,1],[0.4,1],[0.5,1],[0.6,1],[0.7,1],[0.8,1],[0.9,1],[1,0.1],[1,0.3],[1,0.5],[1,0.7],[1,0.9]];fontStyle=4" parent="1" vertex="1">
                    <mxGeometry x="300" y="330.0000000000002" width="60" height="30" as="geometry"/>
                </mxCell>
                <mxCell id="65" value="rr:predicate" style="edgeStyle=orthogonalEdgeStyle;rounded=0;orthogonalLoop=1;jettySize=auto;html=1;fontSize=12;entryX=0;entryY=0.5;entryDx=0;entryDy=0;" parent="1" source="64" target="66" edge="1">
                    <mxGeometry x="0.3115" relative="1" as="geometry">
                        <mxPoint x="400" y="344.5000000000002" as="sourcePoint"/>
                        <mxPoint x="540" y="344.5" as="targetPoint"/>
                        <Array as="points">
                            <mxPoint x="330" y="305"/>
                        </Array>
                        <mxPoint as="offset"/>
                    </mxGeometry>
                </mxCell>
                <mxCell id="66" value="saref:hasValue" style="rounded=0;whiteSpace=wrap;html=1;snapToPoint=1;fontStyle=4" parent="1" vertex="1">
                    <mxGeometry x="450" y="290" width="90" height="30" as="geometry"/>
                </mxCell>
                <mxCell id="67" value="rml:reference" style="rounded=0;orthogonalLoop=1;jettySize=auto;html=1;fontSize=12;exitX=0.4;exitY=0;exitDx=0;exitDy=0;edgeStyle=orthogonalEdgeStyle;entryX=0;entryY=0.5;entryDx=0;entryDy=0;" parent="1" source="68" target="63" edge="1">
                    <mxGeometry x="0.0755" relative="1" as="geometry">
                        <mxPoint x="549.9952941176471" y="344.7058823529412" as="sourcePoint"/>
                        <mxPoint x="709.76" y="385.0000000000002" as="targetPoint"/>
                        <mxPoint as="offset"/>
                    </mxGeometry>
                </mxCell>
                <mxCell id="68" value="&lt;div style=&quot;line-height: 19px;&quot;&gt;&lt;div style=&quot;line-height: 19px;&quot;&gt;_b13&lt;/div&gt;&lt;/div&gt;" style="rounded=0;whiteSpace=wrap;html=1;snapToPoint=1;points=[[0.1,0],[0.2,0],[0.3,0],[0.4,0],[0.5,0],[0.6,0],[0.7,0],[0.8,0],[0.9,0],[0,0.1],[0,0.3],[0,0.5],[0,0.7],[0,0.9],[0.1,1],[0.2,1],[0.3,1],[0.4,1],[0.5,1],[0.6,1],[0.7,1],[0.8,1],[0.9,1],[1,0.1],[1,0.3],[1,0.5],[1,0.7],[1,0.9]];fontStyle=4" parent="1" vertex="1">
                    <mxGeometry x="450" y="380" width="60" height="30" as="geometry"/>
                </mxCell>
                <mxCell id="69" value="rr:objectMap" style="rounded=0;orthogonalLoop=1;jettySize=auto;html=1;fontSize=12;exitX=0.5;exitY=1;exitDx=0;exitDy=0;edgeStyle=orthogonalEdgeStyle;" parent="1" source="64" target="68" edge="1">
                    <mxGeometry x="0.2289" relative="1" as="geometry">
                        <mxPoint x="330.0005882352941" y="395" as="sourcePoint"/>
                        <mxPoint x="490.53" y="435.0000000000002" as="targetPoint"/>
                        <Array as="points">
                            <mxPoint x="330" y="395"/>
                        </Array>
                        <mxPoint as="offset"/>
                    </mxGeometry>
                </mxCell>
                <mxCell id="70" value="" style="endArrow=classic;html=1;exitX=0.5;exitY=1;exitDx=0;exitDy=0;endSize=8;rounded=0;entryX=0;entryY=0.5;entryDx=0;entryDy=0;edgeStyle=orthogonalEdgeStyle;" parent="1" source="46" target="64" edge="1">
                    <mxGeometry width="50" height="50" relative="1" as="geometry">
                        <mxPoint x="140" y="140" as="sourcePoint"/>
                        <mxPoint x="310" y="245.00000000000023" as="targetPoint"/>
                    </mxGeometry>
                </mxCell>
                <mxCell id="71" value="&lt;span style=&quot;background-color: rgb(251, 251, 251);&quot;&gt;rr:predicateObjectMap&lt;/span&gt;" style="text;html=1;align=center;verticalAlign=middle;resizable=0;points=[];labelBackgroundColor=#ffffff;" parent="70" vertex="1" connectable="0">
                    <mxGeometry x="-0.1269" relative="1" as="geometry">
                        <mxPoint x="80" y="64" as="offset"/>
                    </mxGeometry>
                </mxCell>
                <mxCell id="72" value="rr:datatype" style="rounded=0;orthogonalLoop=1;jettySize=auto;html=1;fontSize=12;exitX=1;exitY=0.5;exitDx=0;exitDy=0;edgeStyle=orthogonalEdgeStyle;entryX=0;entryY=0.5;entryDx=0;entryDy=0;" parent="1" source="68" target="73" edge="1">
                    <mxGeometry x="0.0755" relative="1" as="geometry">
                        <mxPoint x="510" y="420" as="sourcePoint"/>
                        <mxPoint x="745.76" y="425.0000000000002" as="targetPoint"/>
                        <mxPoint as="offset"/>
                    </mxGeometry>
                </mxCell>
                <mxCell id="73" value="&lt;div style=&quot;line-height: 19px;&quot;&gt;&lt;div style=&quot;line-height: 19px;&quot;&gt;xsd:float&lt;/div&gt;&lt;/div&gt;" style="rounded=0;whiteSpace=wrap;html=1;snapToPoint=1;points=[[0.1,0],[0.2,0],[0.3,0],[0.4,0],[0.5,0],[0.6,0],[0.7,0],[0.8,0],[0.9,0],[0,0.1],[0,0.3],[0,0.5],[0,0.7],[0,0.9],[0.1,1],[0.2,1],[0.3,1],[0.4,1],[0.5,1],[0.6,1],[0.7,1],[0.8,1],[0.9,1],[1,0.1],[1,0.3],[1,0.5],[1,0.7],[1,0.9]];fontStyle=4" parent="1" vertex="1">
                    <mxGeometry x="620" y="380" width="80" height="30" as="geometry"/>
                </mxCell>
                <mxCell id="75" value="_b14" style="rounded=0;whiteSpace=wrap;html=1;snapToPoint=1;points=[[0.1,0],[0.2,0],[0.3,0],[0.4,0],[0.5,0],[0.6,0],[0.7,0],[0.8,0],[0.9,0],[0,0.1],[0,0.3],[0,0.5],[0,0.7],[0,0.9],[0.1,1],[0.2,1],[0.3,1],[0.4,1],[0.5,1],[0.6,1],[0.7,1],[0.8,1],[0.9,1],[1,0.1],[1,0.3],[1,0.5],[1,0.7],[1,0.9]];fontStyle=4" parent="1" vertex="1">
                    <mxGeometry x="300" y="480.0000000000002" width="60" height="30" as="geometry"/>
                </mxCell>
                <mxCell id="76" value="rr:predicate" style="edgeStyle=orthogonalEdgeStyle;rounded=0;orthogonalLoop=1;jettySize=auto;html=1;fontSize=12;entryX=0;entryY=0.5;entryDx=0;entryDy=0;" parent="1" source="75" target="77" edge="1">
                    <mxGeometry x="0.3115" relative="1" as="geometry">
                        <mxPoint x="400" y="494.5000000000002" as="sourcePoint"/>
                        <mxPoint x="540" y="494.5" as="targetPoint"/>
                        <Array as="points">
                            <mxPoint x="330" y="455"/>
                        </Array>
                        <mxPoint as="offset"/>
                    </mxGeometry>
                </mxCell>
                <mxCell id="77" value="s4city:quantifiesKPI" style="rounded=0;whiteSpace=wrap;html=1;snapToPoint=1;fontStyle=4" parent="1" vertex="1">
                    <mxGeometry x="450" y="440" width="120" height="30" as="geometry"/>
                </mxCell>
                <mxCell id="79" value="&lt;div style=&quot;line-height: 19px;&quot;&gt;&lt;div style=&quot;line-height: 19px;&quot;&gt;usage-o:CO2Scope1Emissions&lt;/div&gt;&lt;/div&gt;" style="rounded=0;whiteSpace=wrap;html=1;snapToPoint=1;points=[[0.1,0],[0.2,0],[0.3,0],[0.4,0],[0.5,0],[0.6,0],[0.7,0],[0.8,0],[0.9,0],[0,0.1],[0,0.3],[0,0.5],[0,0.7],[0,0.9],[0.1,1],[0.2,1],[0.3,1],[0.4,1],[0.5,1],[0.6,1],[0.7,1],[0.8,1],[0.9,1],[1,0.1],[1,0.3],[1,0.5],[1,0.7],[1,0.9]];fontStyle=4" parent="1" vertex="1">
                    <mxGeometry x="450" y="480" width="180" height="30" as="geometry"/>
                </mxCell>
                <mxCell id="80" value="rr:object" style="rounded=0;orthogonalLoop=1;jettySize=auto;html=1;fontSize=12;exitX=1;exitY=0.5;exitDx=0;exitDy=0;edgeStyle=orthogonalEdgeStyle;" parent="1" source="75" target="79" edge="1">
                    <mxGeometry x="0.2289" relative="1" as="geometry">
                        <mxPoint x="330.0005882352941" y="545" as="sourcePoint"/>
                        <mxPoint x="490.53" y="585.0000000000002" as="targetPoint"/>
                        <mxPoint as="offset"/>
                    </mxGeometry>
                </mxCell>
                <mxCell id="83" value="" style="endArrow=classic;html=1;exitX=0.5;exitY=1;exitDx=0;exitDy=0;endSize=8;rounded=0;entryX=0;entryY=0.5;entryDx=0;entryDy=0;edgeStyle=orthogonalEdgeStyle;" parent="1" source="46" target="75" edge="1">
                    <mxGeometry width="50" height="50" relative="1" as="geometry">
                        <mxPoint x="140" y="140" as="sourcePoint"/>
                        <mxPoint x="310" y="385.0000000000002" as="targetPoint"/>
                    </mxGeometry>
                </mxCell>
                <mxCell id="84" value="&lt;span style=&quot;background-color: rgb(251, 251, 251);&quot;&gt;rr:predicateObjectMap&lt;/span&gt;" style="text;html=1;align=center;verticalAlign=middle;resizable=0;points=[];labelBackgroundColor=#ffffff;" parent="83" vertex="1" connectable="0">
                    <mxGeometry x="-0.1269" relative="1" as="geometry">
                        <mxPoint x="80" y="143" as="offset"/>
                    </mxGeometry>
                </mxCell>
                <mxCell id="85" value="_b15" style="rounded=0;whiteSpace=wrap;html=1;snapToPoint=1;points=[[0.1,0],[0.2,0],[0.3,0],[0.4,0],[0.5,0],[0.6,0],[0.7,0],[0.8,0],[0.9,0],[0,0.1],[0,0.3],[0,0.5],[0,0.7],[0,0.9],[0.1,1],[0.2,1],[0.3,1],[0.4,1],[0.5,1],[0.6,1],[0.7,1],[0.8,1],[0.9,1],[1,0.1],[1,0.3],[1,0.5],[1,0.7],[1,0.9]];fontStyle=4" parent="1" vertex="1">
                    <mxGeometry x="300" y="570.0000000000002" width="60" height="30" as="geometry"/>
                </mxCell>
                <mxCell id="86" value="rr:predicate" style="edgeStyle=orthogonalEdgeStyle;rounded=0;orthogonalLoop=1;jettySize=auto;html=1;fontSize=12;entryX=0;entryY=0.5;entryDx=0;entryDy=0;" parent="1" source="85" target="87" edge="1">
                    <mxGeometry x="0.3115" relative="1" as="geometry">
                        <mxPoint x="400" y="584.5000000000002" as="sourcePoint"/>
                        <mxPoint x="540" y="584.5" as="targetPoint"/>
                        <Array as="points">
                            <mxPoint x="330" y="545"/>
                        </Array>
                        <mxPoint as="offset"/>
                    </mxGeometry>
                </mxCell>
                <mxCell id="87" value="saref:isMeasuredIn" style="rounded=0;whiteSpace=wrap;html=1;snapToPoint=1;fontStyle=4" parent="1" vertex="1">
                    <mxGeometry x="450" y="530" width="120" height="30" as="geometry"/>
                </mxCell>
                <mxCell id="88" value="&lt;div style=&quot;line-height: 19px;&quot;&gt;&lt;div style=&quot;line-height: 19px;&quot;&gt;unit:TONNE&lt;/div&gt;&lt;/div&gt;" style="rounded=0;whiteSpace=wrap;html=1;snapToPoint=1;points=[[0.1,0],[0.2,0],[0.3,0],[0.4,0],[0.5,0],[0.6,0],[0.7,0],[0.8,0],[0.9,0],[0,0.1],[0,0.3],[0,0.5],[0,0.7],[0,0.9],[0.1,1],[0.2,1],[0.3,1],[0.4,1],[0.5,1],[0.6,1],[0.7,1],[0.8,1],[0.9,1],[1,0.1],[1,0.3],[1,0.5],[1,0.7],[1,0.9]];fontStyle=4" parent="1" vertex="1">
                    <mxGeometry x="450" y="570" width="80" height="30" as="geometry"/>
                </mxCell>
                <mxCell id="89" value="rr:object" style="rounded=0;orthogonalLoop=1;jettySize=auto;html=1;fontSize=12;exitX=1;exitY=0.5;exitDx=0;exitDy=0;edgeStyle=orthogonalEdgeStyle;" parent="1" source="85" target="88" edge="1">
                    <mxGeometry x="0.2289" relative="1" as="geometry">
                        <mxPoint x="330.0005882352941" y="635" as="sourcePoint"/>
                        <mxPoint x="490.53" y="675.0000000000002" as="targetPoint"/>
                        <mxPoint as="offset"/>
                    </mxGeometry>
                </mxCell>
                <mxCell id="90" value="" style="endArrow=classic;html=1;exitX=0.5;exitY=1;exitDx=0;exitDy=0;endSize=8;rounded=0;entryX=0;entryY=0.5;entryDx=0;entryDy=0;edgeStyle=orthogonalEdgeStyle;" parent="1" source="46" target="85" edge="1">
                    <mxGeometry width="50" height="50" relative="1" as="geometry">
                        <mxPoint x="140" y="140" as="sourcePoint"/>
                        <mxPoint x="310" y="535.0000000000002" as="targetPoint"/>
                    </mxGeometry>
                </mxCell>
                <mxCell id="91" value="&lt;span style=&quot;background-color: rgb(251, 251, 251);&quot;&gt;rr:predicateObjectMap&lt;/span&gt;" style="text;html=1;align=center;verticalAlign=middle;resizable=0;points=[];labelBackgroundColor=#ffffff;" parent="90" vertex="1" connectable="0">
                    <mxGeometry x="-0.1269" relative="1" as="geometry">
                        <mxPoint x="80" y="199" as="offset"/>
                    </mxGeometry>
                </mxCell>
                <mxCell id="94" value="_b16" style="rounded=0;whiteSpace=wrap;html=1;snapToPoint=1;points=[[0.1,0],[0.2,0],[0.3,0],[0.4,0],[0.5,0],[0.6,0],[0.7,0],[0.8,0],[0.9,0],[0,0.1],[0,0.3],[0,0.5],[0,0.7],[0,0.9],[0.1,1],[0.2,1],[0.3,1],[0.4,1],[0.5,1],[0.6,1],[0.7,1],[0.8,1],[0.9,1],[1,0.1],[1,0.3],[1,0.5],[1,0.7],[1,0.9]];fontStyle=4" parent="1" vertex="1">
                    <mxGeometry x="305" y="660.0000000000002" width="60" height="30" as="geometry"/>
                </mxCell>
                <mxCell id="95" value="rr:predicate" style="edgeStyle=orthogonalEdgeStyle;rounded=0;orthogonalLoop=1;jettySize=auto;html=1;fontSize=12;entryX=0;entryY=0.5;entryDx=0;entryDy=0;" parent="1" source="94" target="96" edge="1">
                    <mxGeometry x="0.3115" relative="1" as="geometry">
                        <mxPoint x="405" y="674.5000000000002" as="sourcePoint"/>
                        <mxPoint x="545" y="674.5" as="targetPoint"/>
                        <Array as="points">
                            <mxPoint x="335" y="635"/>
                        </Array>
                        <mxPoint as="offset"/>
                    </mxGeometry>
                </mxCell>
                <mxCell id="96" value="s4city:refersToFeature" style="rounded=0;whiteSpace=wrap;html=1;snapToPoint=1;fontStyle=4" parent="1" vertex="1">
                    <mxGeometry x="455" y="620" width="135" height="30" as="geometry"/>
                </mxCell>
                <mxCell id="97" value="rr:parentTriplesMap" style="rounded=0;orthogonalLoop=1;jettySize=auto;html=1;fontSize=12;exitX=0.4;exitY=0;exitDx=0;exitDy=0;edgeStyle=orthogonalEdgeStyle;entryX=0;entryY=0.5;entryDx=0;entryDy=0;" parent="1" source="98" target="109" edge="1">
                    <mxGeometry x="0.0755" relative="1" as="geometry">
                        <mxPoint x="554.9952941176471" y="674.7058823529412" as="sourcePoint"/>
                        <mxPoint x="765" y="685" as="targetPoint"/>
                        <mxPoint as="offset"/>
                    </mxGeometry>
                </mxCell>
                <mxCell id="98" value="&lt;div style=&quot;line-height: 19px;&quot;&gt;&lt;div style=&quot;line-height: 19px;&quot;&gt;_b17&lt;/div&gt;&lt;/div&gt;" style="rounded=0;whiteSpace=wrap;html=1;snapToPoint=1;points=[[0.1,0],[0.2,0],[0.3,0],[0.4,0],[0.5,0],[0.6,0],[0.7,0],[0.8,0],[0.9,0],[0,0.1],[0,0.3],[0,0.5],[0,0.7],[0,0.9],[0.1,1],[0.2,1],[0.3,1],[0.4,1],[0.5,1],[0.6,1],[0.7,1],[0.8,1],[0.9,1],[1,0.1],[1,0.3],[1,0.5],[1,0.7],[1,0.9]];fontStyle=4" parent="1" vertex="1">
                    <mxGeometry x="455" y="710" width="60" height="30" as="geometry"/>
                </mxCell>
                <mxCell id="99" value="rr:objectMap" style="rounded=0;orthogonalLoop=1;jettySize=auto;html=1;fontSize=12;exitX=0.5;exitY=1;exitDx=0;exitDy=0;edgeStyle=orthogonalEdgeStyle;" parent="1" source="94" target="98" edge="1">
                    <mxGeometry x="0.2289" relative="1" as="geometry">
                        <mxPoint x="335.0005882352941" y="725" as="sourcePoint"/>
                        <mxPoint x="495.53" y="765.0000000000002" as="targetPoint"/>
                        <Array as="points">
                            <mxPoint x="335" y="725"/>
                        </Array>
                        <mxPoint as="offset"/>
                    </mxGeometry>
                </mxCell>
                <mxCell id="101" value="rr:joinCondition" style="rounded=0;orthogonalLoop=1;jettySize=auto;html=1;fontSize=12;exitX=0.4;exitY=1;exitDx=0;exitDy=0;edgeStyle=orthogonalEdgeStyle;entryX=0;entryY=0.5;entryDx=0;entryDy=0;" parent="1" source="98" target="102" edge="1">
                    <mxGeometry x="0.3878" relative="1" as="geometry">
                        <mxPoint x="515" y="750" as="sourcePoint"/>
                        <mxPoint x="750.76" y="755.0000000000002" as="targetPoint"/>
                        <mxPoint as="offset"/>
                    </mxGeometry>
                </mxCell>
                <mxCell id="102" value="&lt;div style=&quot;line-height: 19px;&quot;&gt;&lt;div style=&quot;line-height: 19px;&quot;&gt;_b5&lt;/div&gt;&lt;/div&gt;" style="rounded=0;whiteSpace=wrap;html=1;snapToPoint=1;points=[[0.1,0],[0.2,0],[0.3,0],[0.4,0],[0.5,0],[0.6,0],[0.7,0],[0.8,0],[0.9,0],[0,0.1],[0,0.3],[0,0.5],[0,0.7],[0,0.9],[0.1,1],[0.2,1],[0.3,1],[0.4,1],[0.5,1],[0.6,1],[0.7,1],[0.8,1],[0.9,1],[1,0.1],[1,0.3],[1,0.5],[1,0.7],[1,0.9]];fontStyle=4" parent="1" vertex="1">
                    <mxGeometry x="650" y="750" width="60" height="30" as="geometry"/>
                </mxCell>
                <mxCell id="107" value="" style="endArrow=classic;html=1;exitX=0.5;exitY=1;exitDx=0;exitDy=0;endSize=8;rounded=0;entryX=0;entryY=0.5;entryDx=0;entryDy=0;edgeStyle=orthogonalEdgeStyle;" parent="1" source="46" target="94" edge="1">
                    <mxGeometry width="50" height="50" relative="1" as="geometry">
                        <mxPoint x="140" y="140" as="sourcePoint"/>
                        <mxPoint x="310" y="625.0000000000002" as="targetPoint"/>
                    </mxGeometry>
                </mxCell>
                <mxCell id="108" value="&lt;span style=&quot;background-color: rgb(251, 251, 251);&quot;&gt;rr:predicateObjectMap&lt;/span&gt;" style="text;html=1;align=center;verticalAlign=middle;resizable=0;points=[];labelBackgroundColor=#ffffff;" parent="107" vertex="1" connectable="0">
                    <mxGeometry x="-0.1269" relative="1" as="geometry">
                        <mxPoint x="80" y="248" as="offset"/>
                    </mxGeometry>
                </mxCell>
                <mxCell id="109" value="&lt;u&gt;&amp;lt;#Cell&amp;gt;&lt;/u&gt;" style="rounded=0;whiteSpace=wrap;html=1;snapToPoint=1;points=[[0.1,0],[0.2,0],[0.3,0],[0.4,0],[0.5,0],[0.6,0],[0.7,0],[0.8,0],[0.9,0],[0,0.1],[0,0.3],[0,0.5],[0,0.7],[0,0.9],[0.1,1],[0.2,1],[0.3,1],[0.4,1],[0.5,1],[0.6,1],[0.7,1],[0.8,1],[0.9,1],[1,0.1],[1,0.3],[1,0.5],[1,0.7],[1,0.9]];" parent="1" vertex="1">
                    <mxGeometry x="650" y="670" width="80" height="30" as="geometry"/>
                </mxCell>
                <mxCell id="212" value="&lt;u&gt;&amp;nbsp;b10&lt;/u&gt;" style="rounded=0;whiteSpace=wrap;html=1;snapToPoint=1;points=[[0.1,0],[0.2,0],[0.3,0],[0.4,0],[0.5,0],[0.6,0],[0.7,0],[0.8,0],[0.9,0],[0,0.1],[0,0.3],[0,0.5],[0,0.7],[0,0.9],[0.1,1],[0.2,1],[0.3,1],[0.4,1],[0.5,1],[0.6,1],[0.7,1],[0.8,1],[0.9,1],[1,0.1],[1,0.3],[1,0.5],[1,0.7],[1,0.9]];" parent="1" vertex="1">
                    <mxGeometry x="485" y="-660" width="60" height="30" as="geometry"/>
                </mxCell>
                <mxCell id="213" value="&quot;http://w3id.org/def/usage/resource/District/ZGZ-id-{ID_PADRON&lt;span style=&quot;background-color: initial;&quot;&gt;}&quot;&lt;/span&gt;" style="rounded=0;whiteSpace=wrap;html=1;snapToPoint=1;points=[[0.1,0],[0.2,0],[0.3,0],[0.4,0],[0.5,0],[0.6,0],[0.7,0],[0.8,0],[0.9,0],[0,0.1],[0,0.3],[0,0.5],[0,0.7],[0,0.9],[0.1,1],[0.2,1],[0.3,1],[0.4,1],[0.5,1],[0.6,1],[0.7,1],[0.8,1],[0.9,1],[1,0.1],[1,0.3],[1,0.5],[1,0.7],[1,0.9]];" parent="1" vertex="1">
                    <mxGeometry x="1135" y="-610" width="405" height="30" as="geometry"/>
                </mxCell>
                <mxCell id="215" value="rr:template" style="rounded=0;orthogonalLoop=1;jettySize=auto;html=1;fontSize=12;entryX=0;entryY=0.5;entryDx=0;entryDy=0;exitX=0.5;exitY=0;exitDx=0;exitDy=0;edgeStyle=orthogonalEdgeStyle;" parent="1" source="2309" target="213" edge="1">
                    <mxGeometry x="-0.0476" relative="1" as="geometry">
                        <mxPoint x="1010" y="-595" as="sourcePoint"/>
                        <mxPoint x="1150" y="-540" as="targetPoint"/>
                        <mxPoint as="offset"/>
                    </mxGeometry>
                </mxCell>
                <mxCell id="311" value="_b9" style="rounded=0;whiteSpace=wrap;html=1;snapToPoint=1;points=[[0.1,0],[0.2,0],[0.3,0],[0.4,0],[0.5,0],[0.6,0],[0.7,0],[0.8,0],[0.9,0],[0,0.1],[0,0.3],[0,0.5],[0,0.7],[0,0.9],[0.1,1],[0.2,1],[0.3,1],[0.4,1],[0.5,1],[0.6,1],[0.7,1],[0.8,1],[0.9,1],[1,0.1],[1,0.3],[1,0.5],[1,0.7],[1,0.9]];fontStyle=4" parent="1" vertex="1">
                    <mxGeometry x="335" y="-719.9999999999998" width="60" height="30" as="geometry"/>
                </mxCell>
                <mxCell id="312" value="rr:predicate" style="edgeStyle=orthogonalEdgeStyle;rounded=0;orthogonalLoop=1;jettySize=auto;html=1;fontSize=12;entryX=0;entryY=0.5;entryDx=0;entryDy=0;" parent="1" source="311" target="313" edge="1">
                    <mxGeometry x="0.3115" relative="1" as="geometry">
                        <mxPoint x="435" y="-755.4999999999998" as="sourcePoint"/>
                        <mxPoint x="575" y="-755.5" as="targetPoint"/>
                        <Array as="points">
                            <mxPoint x="365" y="-755"/>
                        </Array>
                        <mxPoint as="offset"/>
                    </mxGeometry>
                </mxCell>
                <mxCell id="313" value="geo:sfWithin" style="rounded=0;whiteSpace=wrap;html=1;snapToPoint=1;fontStyle=4" parent="1" vertex="1">
                    <mxGeometry x="485" y="-770" width="105" height="30" as="geometry"/>
                </mxCell>
                <mxCell id="314" value="rr:objectMap" style="rounded=0;orthogonalLoop=1;jettySize=auto;html=1;fontSize=12;exitX=0.5;exitY=1;exitDx=0;exitDy=0;edgeStyle=orthogonalEdgeStyle;entryX=0;entryY=0.5;entryDx=0;entryDy=0;" parent="1" source="311" target="212" edge="1">
                    <mxGeometry x="0.3955" relative="1" as="geometry">
                        <mxPoint x="365.0005882352941" y="-705" as="sourcePoint"/>
                        <mxPoint x="485" y="-705" as="targetPoint"/>
                        <Array as="points">
                            <mxPoint x="365" y="-645"/>
                        </Array>
                        <mxPoint as="offset"/>
                    </mxGeometry>
                </mxCell>
                <mxCell id="323" value="" style="endArrow=classic;html=1;exitX=0.5;exitY=1;exitDx=0;exitDy=0;endSize=8;rounded=0;entryX=0;entryY=0.5;entryDx=0;entryDy=0;edgeStyle=orthogonalEdgeStyle;" parent="1" source="5" target="311" edge="1">
                    <mxGeometry width="50" height="50" relative="1" as="geometry">
                        <mxPoint x="175" y="-950.0000000000001" as="sourcePoint"/>
                        <mxPoint x="345" y="-704.9999999999998" as="targetPoint"/>
                    </mxGeometry>
                </mxCell>
                <mxCell id="324" value="&lt;span style=&quot;background-color: rgb(251, 251, 251);&quot;&gt;rr:predicateObjectMap&lt;/span&gt;" style="text;html=1;align=center;verticalAlign=middle;resizable=0;points=[];labelBackgroundColor=#ffffff;" parent="323" vertex="1" connectable="0">
                    <mxGeometry x="-0.1269" relative="1" as="geometry">
                        <mxPoint x="80" y="69" as="offset"/>
                    </mxGeometry>
                </mxCell>
                <mxCell id="2301" value="&lt;div style=&quot;line-height: 19px;&quot;&gt;rr:TriplesMap&lt;/div&gt;" style="rounded=0;whiteSpace=wrap;html=1;snapToPoint=1;points=[[0.1,0],[0.2,0],[0.3,0],[0.4,0],[0.5,0],[0.6,0],[0.7,0],[0.8,0],[0.9,0],[0,0.1],[0,0.3],[0,0.5],[0,0.7],[0,0.9],[0.1,1],[0.2,1],[0.3,1],[0.4,1],[0.5,1],[0.6,1],[0.7,1],[0.8,1],[0.9,1],[1,0.1],[1,0.3],[1,0.5],[1,0.7],[1,0.9]];" parent="1" vertex="1">
                    <mxGeometry x="786" y="-690" width="100" height="30" as="geometry"/>
                </mxCell>
                <mxCell id="2302" value="&lt;u&gt;&amp;lt;#District&amp;gt;&lt;/u&gt;" style="rounded=0;whiteSpace=wrap;html=1;snapToPoint=1;points=[[0.1,0],[0.2,0],[0.3,0],[0.4,0],[0.5,0],[0.6,0],[0.7,0],[0.8,0],[0.9,0],[0,0.1],[0,0.3],[0,0.5],[0,0.7],[0,0.9],[0.1,1],[0.2,1],[0.3,1],[0.4,1],[0.5,1],[0.6,1],[0.7,1],[0.8,1],[0.9,1],[1,0.1],[1,0.3],[1,0.5],[1,0.7],[1,0.9]];" parent="1" vertex="1">
                    <mxGeometry x="786" y="-660" width="100" height="30" as="geometry"/>
                </mxCell>
                <mxCell id="2303" value="" style="endArrow=classic;html=1;exitX=1;exitY=0.5;exitDx=0;exitDy=0;entryX=0;entryY=0.5;entryDx=0;entryDy=0;endSize=8;edgeStyle=orthogonalEdgeStyle;rounded=0;" parent="1" source="2302" target="2305" edge="1">
                    <mxGeometry width="50" height="50" relative="1" as="geometry">
                        <mxPoint x="884.0000000000005" y="-525" as="sourcePoint"/>
                        <mxPoint x="1011" y="-595" as="targetPoint"/>
                    </mxGeometry>
                </mxCell>
                <mxCell id="2304" value="&lt;span style=&quot;background-color: rgb(251, 251, 251);&quot;&gt;rml:logicalSource&lt;/span&gt;" style="text;html=1;align=center;verticalAlign=middle;resizable=0;points=[];labelBackgroundColor=#ffffff;" parent="2303" vertex="1" connectable="0">
                    <mxGeometry x="-0.1269" relative="1" as="geometry">
                        <mxPoint as="offset"/>
                    </mxGeometry>
                </mxCell>
                <mxCell id="2305" value="_b1" style="rounded=0;whiteSpace=wrap;html=1;snapToPoint=1;points=[[0.1,0],[0.2,0],[0.3,0],[0.4,0],[0.5,0],[0.6,0],[0.7,0],[0.8,0],[0.9,0],[0,0.1],[0,0.3],[0,0.5],[0,0.7],[0,0.9],[0.1,1],[0.2,1],[0.3,1],[0.4,1],[0.5,1],[0.6,1],[0.7,1],[0.8,1],[0.9,1],[1,0.1],[1,0.3],[1,0.5],[1,0.7],[1,0.9]];fontStyle=4" parent="1" vertex="1">
                    <mxGeometry x="1006" y="-659.9999999999998" width="60" height="30" as="geometry"/>
                </mxCell>
                <mxCell id="2306" value="" style="endArrow=classic;html=1;exitX=0.5;exitY=1;exitDx=0;exitDy=0;endSize=8;rounded=0;entryX=0;entryY=0.5;entryDx=0;entryDy=0;edgeStyle=orthogonalEdgeStyle;" parent="1" source="2302" target="2309" edge="1">
                    <mxGeometry width="50" height="50" relative="1" as="geometry">
                        <mxPoint x="846" y="-530" as="sourcePoint"/>
                        <mxPoint x="976" y="-560" as="targetPoint"/>
                    </mxGeometry>
                </mxCell>
                <mxCell id="2307" value="&lt;span style=&quot;background-color: rgb(251, 251, 251);&quot;&gt;rr:subjectMap&lt;/span&gt;" style="text;html=1;align=center;verticalAlign=middle;resizable=0;points=[];labelBackgroundColor=#ffffff;" parent="2306" vertex="1" connectable="0">
                    <mxGeometry x="-0.1269" relative="1" as="geometry">
                        <mxPoint x="45" as="offset"/>
                    </mxGeometry>
                </mxCell>
                <mxCell id="2308" value="&lt;div style=&quot;line-height: 19px;&quot;&gt;&lt;div style=&quot;line-height: 19px;&quot;&gt;s4city:District&lt;/div&gt;&lt;/div&gt;" style="rounded=0;whiteSpace=wrap;html=1;snapToPoint=1;points=[[0.1,0],[0.2,0],[0.3,0],[0.4,0],[0.5,0],[0.6,0],[0.7,0],[0.8,0],[0.9,0],[0,0.1],[0,0.3],[0,0.5],[0,0.7],[0,0.9],[0.1,1],[0.2,1],[0.3,1],[0.4,1],[0.5,1],[0.6,1],[0.7,1],[0.8,1],[0.9,1],[1,0.1],[1,0.3],[1,0.5],[1,0.7],[1,0.9]];fontStyle=4" parent="1" vertex="1">
                    <mxGeometry x="1236" y="-570" width="100" height="30" as="geometry"/>
                </mxCell>
                <mxCell id="2309" value="_b6d" style="rounded=0;whiteSpace=wrap;html=1;snapToPoint=1;points=[[0.1,0],[0.2,0],[0.3,0],[0.4,0],[0.5,0],[0.6,0],[0.7,0],[0.8,0],[0.9,0],[0,0.1],[0,0.3],[0,0.5],[0,0.7],[0,0.9],[0.1,1],[0.2,1],[0.3,1],[0.4,1],[0.5,1],[0.6,1],[0.7,1],[0.8,1],[0.9,1],[1,0.1],[1,0.3],[1,0.5],[1,0.7],[1,0.9]];fontStyle=4" parent="1" vertex="1">
                    <mxGeometry x="1006" y="-569.9999999999998" width="60" height="30" as="geometry"/>
                </mxCell>
                <mxCell id="2310" value="rr:class" style="rounded=0;orthogonalLoop=1;jettySize=auto;html=1;fontSize=12;" parent="1" source="2309" target="2308" edge="1">
                    <mxGeometry relative="1" as="geometry">
                        <mxPoint x="1066" y="-514.9999999999998" as="sourcePoint"/>
                        <mxPoint x="1226" y="-514.9999999999998" as="targetPoint"/>
                    </mxGeometry>
                </mxCell>
                <mxCell id="2311" value="&lt;div style=&quot;line-height: 19px;&quot;&gt;&lt;div style=&quot;line-height: 19px;&quot;&gt;usage-g:ZGZ-Arbolado&lt;/div&gt;&lt;/div&gt;" style="rounded=0;whiteSpace=wrap;html=1;snapToPoint=1;points=[[0.1,0],[0.2,0],[0.3,0],[0.4,0],[0.5,0],[0.6,0],[0.7,0],[0.8,0],[0.9,0],[0,0.1],[0,0.3],[0,0.5],[0,0.7],[0,0.9],[0.1,1],[0.2,1],[0.3,1],[0.4,1],[0.5,1],[0.6,1],[0.7,1],[0.8,1],[0.9,1],[1,0.1],[1,0.3],[1,0.5],[1,0.7],[1,0.9]];fontStyle=4" parent="1" vertex="1">
                    <mxGeometry x="1236" y="-520" width="90" height="30" as="geometry"/>
                </mxCell>
                <mxCell id="2312" value="rr:graph" style="rounded=0;orthogonalLoop=1;jettySize=auto;html=1;fontSize=12;exitX=0.5;exitY=1;exitDx=0;exitDy=0;edgeStyle=orthogonalEdgeStyle;" parent="1" source="2309" target="2311" edge="1">
                    <mxGeometry relative="1" as="geometry">
                        <mxPoint x="1036.0005882352941" y="-505" as="sourcePoint"/>
                        <mxPoint x="1196.53" y="-464.9999999999998" as="targetPoint"/>
                        <Array as="points">
                            <mxPoint x="1036" y="-505"/>
                        </Array>
                    </mxGeometry>
                </mxCell>
                <mxCell id="2313" value="rr:parentTriplesMap" style="rounded=0;orthogonalLoop=1;jettySize=auto;html=1;fontSize=12;exitX=1;exitY=0.5;exitDx=0;exitDy=0;edgeStyle=orthogonalEdgeStyle;entryX=0;entryY=0.5;entryDx=0;entryDy=0;" parent="1" source="212" target="2302" edge="1">
                    <mxGeometry x="0.0755" relative="1" as="geometry">
                        <mxPoint x="505" y="-620" as="sourcePoint"/>
                        <mxPoint x="711" y="-645" as="targetPoint"/>
                        <mxPoint as="offset"/>
                    </mxGeometry>
                </mxCell>
                <mxCell id="2316" value="&lt;div style=&quot;line-height: 19px;&quot;&gt;&lt;div style=&quot;line-height: 19px;&quot;&gt;&quot;NOM_DISTRITO&quot;&lt;br&gt;&lt;/div&gt;&lt;/div&gt;" style="rounded=0;whiteSpace=wrap;html=1;snapToPoint=1;points=[[0.1,0],[0.2,0],[0.3,0],[0.4,0],[0.5,0],[0.6,0],[0.7,0],[0.8,0],[0.9,0],[0,0.1],[0,0.3],[0,0.5],[0,0.7],[0,0.9],[0.1,1],[0.2,1],[0.3,1],[0.4,1],[0.5,1],[0.6,1],[0.7,1],[0.8,1],[0.9,1],[1,0.1],[1,0.3],[1,0.5],[1,0.7],[1,0.9]];" parent="1" vertex="1">
                    <mxGeometry x="1322.56" y="-410" width="114.94" height="30" as="geometry"/>
                </mxCell>
                <mxCell id="2317" value="_b7d" style="rounded=0;whiteSpace=wrap;html=1;snapToPoint=1;points=[[0.1,0],[0.2,0],[0.3,0],[0.4,0],[0.5,0],[0.6,0],[0.7,0],[0.8,0],[0.9,0],[0,0.1],[0,0.3],[0,0.5],[0,0.7],[0,0.9],[0.1,1],[0.2,1],[0.3,1],[0.4,1],[0.5,1],[0.6,1],[0.7,1],[0.8,1],[0.9,1],[1,0.1],[1,0.3],[1,0.5],[1,0.7],[1,0.9]];fontStyle=4" parent="1" vertex="1">
                    <mxGeometry x="1002.56" y="-419.9999999999998" width="60" height="30" as="geometry"/>
                </mxCell>
                <mxCell id="2318" value="rr:predicate" style="edgeStyle=orthogonalEdgeStyle;rounded=0;orthogonalLoop=1;jettySize=auto;html=1;fontSize=12;entryX=0;entryY=0.5;entryDx=0;entryDy=0;" parent="1" source="2317" target="2319" edge="1">
                    <mxGeometry x="0.3115" relative="1" as="geometry">
                        <mxPoint x="1102.56" y="-405.4999999999998" as="sourcePoint"/>
                        <mxPoint x="1242.56" y="-405.5" as="targetPoint"/>
                        <Array as="points">
                            <mxPoint x="1032.56" y="-445"/>
                        </Array>
                        <mxPoint as="offset"/>
                    </mxGeometry>
                </mxCell>
                <mxCell id="2319" value="rdfs:label" style="rounded=0;whiteSpace=wrap;html=1;snapToPoint=1;fontStyle=4" parent="1" vertex="1">
                    <mxGeometry x="1152.56" y="-460" width="90" height="30" as="geometry"/>
                </mxCell>
                <mxCell id="2320" value="rml:reference" style="rounded=0;orthogonalLoop=1;jettySize=auto;html=1;fontSize=12;exitX=0.4;exitY=0;exitDx=0;exitDy=0;edgeStyle=orthogonalEdgeStyle;entryX=0;entryY=0.5;entryDx=0;entryDy=0;" parent="1" source="2321" target="2316" edge="1">
                    <mxGeometry x="0.0755" relative="1" as="geometry">
                        <mxPoint x="1252.555294117647" y="-405.2941176470588" as="sourcePoint"/>
                        <mxPoint x="1412.32" y="-364.9999999999998" as="targetPoint"/>
                        <mxPoint as="offset"/>
                    </mxGeometry>
                </mxCell>
                <mxCell id="2321" value="&lt;div style=&quot;line-height: 19px;&quot;&gt;&lt;div style=&quot;line-height: 19px;&quot;&gt;_b8d&lt;/div&gt;&lt;/div&gt;" style="rounded=0;whiteSpace=wrap;html=1;snapToPoint=1;points=[[0.1,0],[0.2,0],[0.3,0],[0.4,0],[0.5,0],[0.6,0],[0.7,0],[0.8,0],[0.9,0],[0,0.1],[0,0.3],[0,0.5],[0,0.7],[0,0.9],[0.1,1],[0.2,1],[0.3,1],[0.4,1],[0.5,1],[0.6,1],[0.7,1],[0.8,1],[0.9,1],[1,0.1],[1,0.3],[1,0.5],[1,0.7],[1,0.9]];fontStyle=4" parent="1" vertex="1">
                    <mxGeometry x="1152.56" y="-370" width="60" height="30" as="geometry"/>
                </mxCell>
                <mxCell id="2322" value="rr:objectMap" style="rounded=0;orthogonalLoop=1;jettySize=auto;html=1;fontSize=12;exitX=0.5;exitY=1;exitDx=0;exitDy=0;edgeStyle=orthogonalEdgeStyle;" parent="1" source="2317" target="2321" edge="1">
                    <mxGeometry x="0.2289" relative="1" as="geometry">
                        <mxPoint x="1032.560588235294" y="-355" as="sourcePoint"/>
                        <mxPoint x="1193.09" y="-314.9999999999998" as="targetPoint"/>
                        <Array as="points">
                            <mxPoint x="1032.56" y="-355"/>
                        </Array>
                        <mxPoint as="offset"/>
                    </mxGeometry>
                </mxCell>
                <mxCell id="2323" value="rr:datatype" style="rounded=0;orthogonalLoop=1;jettySize=auto;html=1;fontSize=12;exitX=1;exitY=0.5;exitDx=0;exitDy=0;edgeStyle=orthogonalEdgeStyle;entryX=0;entryY=0.5;entryDx=0;entryDy=0;" parent="1" source="2321" target="2324" edge="1">
                    <mxGeometry x="0.0755" relative="1" as="geometry">
                        <mxPoint x="1212.56" y="-330" as="sourcePoint"/>
                        <mxPoint x="1448.32" y="-324.9999999999998" as="targetPoint"/>
                        <mxPoint as="offset"/>
                    </mxGeometry>
                </mxCell>
                <mxCell id="2324" value="&lt;div style=&quot;line-height: 19px;&quot;&gt;&lt;div style=&quot;line-height: 19px;&quot;&gt;xsd:string&lt;/div&gt;&lt;/div&gt;" style="rounded=0;whiteSpace=wrap;html=1;snapToPoint=1;points=[[0.1,0],[0.2,0],[0.3,0],[0.4,0],[0.5,0],[0.6,0],[0.7,0],[0.8,0],[0.9,0],[0,0.1],[0,0.3],[0,0.5],[0,0.7],[0,0.9],[0.1,1],[0.2,1],[0.3,1],[0.4,1],[0.5,1],[0.6,1],[0.7,1],[0.8,1],[0.9,1],[1,0.1],[1,0.3],[1,0.5],[1,0.7],[1,0.9]];fontStyle=4" parent="1" vertex="1">
                    <mxGeometry x="1322.56" y="-370" width="84.94" height="30" as="geometry"/>
                </mxCell>
                <mxCell id="2325" value="" style="endArrow=classic;html=1;exitX=0.5;exitY=1;exitDx=0;exitDy=0;endSize=8;rounded=0;entryX=0;entryY=0.5;entryDx=0;entryDy=0;edgeStyle=orthogonalEdgeStyle;" parent="1" source="2302" target="2317" edge="1">
                    <mxGeometry width="50" height="50" relative="1" as="geometry">
                        <mxPoint x="832.56" y="-620" as="sourcePoint"/>
                        <mxPoint x="1012.56" y="-504.9999999999998" as="targetPoint"/>
                    </mxGeometry>
                </mxCell>
                <mxCell id="2326" value="&lt;span style=&quot;background-color: rgb(251, 251, 251);&quot;&gt;rr:predicateObjectMap&lt;/span&gt;" style="text;html=1;align=center;verticalAlign=middle;resizable=0;points=[];labelBackgroundColor=#ffffff;" parent="2325" vertex="1" connectable="0">
                    <mxGeometry x="-0.1269" relative="1" as="geometry">
                        <mxPoint x="80" y="64" as="offset"/>
                    </mxGeometry>
                </mxCell>
                <mxCell id="2327" value="rr:joinCondition" style="rounded=0;orthogonalLoop=1;jettySize=auto;html=1;fontSize=12;exitX=0.5;exitY=1;exitDx=0;exitDy=0;edgeStyle=orthogonalEdgeStyle;entryX=0;entryY=0.5;entryDx=0;entryDy=0;" parent="1" source="212" target="2328" edge="1">
                    <mxGeometry x="0.0755" relative="1" as="geometry">
                        <mxPoint x="504" y="-600" as="sourcePoint"/>
                        <mxPoint x="775.76" y="-584.9999999999998" as="targetPoint"/>
                        <mxPoint as="offset"/>
                    </mxGeometry>
                </mxCell>
                <mxCell id="2328" value="&lt;div style=&quot;line-height: 19px;&quot;&gt;&lt;div style=&quot;line-height: 19px;&quot;&gt;_b5&lt;/div&gt;&lt;/div&gt;" style="rounded=0;whiteSpace=wrap;html=1;snapToPoint=1;points=[[0.1,0],[0.2,0],[0.3,0],[0.4,0],[0.5,0],[0.6,0],[0.7,0],[0.8,0],[0.9,0],[0,0.1],[0,0.3],[0,0.5],[0,0.7],[0,0.9],[0.1,1],[0.2,1],[0.3,1],[0.4,1],[0.5,1],[0.6,1],[0.7,1],[0.8,1],[0.9,1],[1,0.1],[1,0.3],[1,0.5],[1,0.7],[1,0.9]];fontStyle=4" parent="1" vertex="1">
                    <mxGeometry x="570" y="-580" width="60" height="30" as="geometry"/>
                </mxCell>
                <mxCell id="2329" value="_b20s" style="rounded=0;whiteSpace=wrap;html=1;snapToPoint=1;points=[[0.1,0],[0.2,0],[0.3,0],[0.4,0],[0.5,0],[0.6,0],[0.7,0],[0.8,0],[0.9,0],[0,0.1],[0,0.3],[0,0.5],[0,0.7],[0,0.9],[0.1,1],[0.2,1],[0.3,1],[0.4,1],[0.5,1],[0.6,1],[0.7,1],[0.8,1],[0.9,1],[1,0.1],[1,0.3],[1,0.5],[1,0.7],[1,0.9]];fontStyle=4" parent="1" vertex="1">
                    <mxGeometry x="300" y="1090.0000000000002" width="60" height="30" as="geometry"/>
                </mxCell>
                <mxCell id="2330" value="rr:predicate" style="edgeStyle=orthogonalEdgeStyle;rounded=0;orthogonalLoop=1;jettySize=auto;html=1;fontSize=12;entryX=0;entryY=0.5;entryDx=0;entryDy=0;" parent="1" source="2329" target="2331" edge="1">
                    <mxGeometry x="0.3115" relative="1" as="geometry">
                        <mxPoint x="400" y="1104.5000000000002" as="sourcePoint"/>
                        <mxPoint x="540" y="1104.5" as="targetPoint"/>
                        <Array as="points">
                            <mxPoint x="330" y="1065"/>
                        </Array>
                        <mxPoint as="offset"/>
                    </mxGeometry>
                </mxCell>
                <mxCell id="2331" value="usage-o:refersToSector" style="rounded=0;whiteSpace=wrap;html=1;snapToPoint=1;fontStyle=4" parent="1" vertex="1">
                    <mxGeometry x="450" y="1050" width="135" height="30" as="geometry"/>
                </mxCell>
                <mxCell id="2334" value="rr:objectMap" style="rounded=0;orthogonalLoop=1;jettySize=auto;html=1;fontSize=12;exitX=0.5;exitY=1;exitDx=0;exitDy=0;edgeStyle=orthogonalEdgeStyle;entryX=0;entryY=0.5;entryDx=0;entryDy=0;" parent="1" source="2329" target="2342" edge="1">
                    <mxGeometry x="0.2289" relative="1" as="geometry">
                        <mxPoint x="330.0005882352941" y="1155" as="sourcePoint"/>
                        <mxPoint x="450.0652631578948" y="1155.4210526315792" as="targetPoint"/>
                        <Array as="points">
                            <mxPoint x="329.96" y="1155"/>
                        </Array>
                        <mxPoint as="offset"/>
                    </mxGeometry>
                </mxCell>
                <mxCell id="2338" value="" style="endArrow=classic;html=1;exitX=0.5;exitY=1;exitDx=0;exitDy=0;endSize=8;rounded=0;entryX=0;entryY=0.5;entryDx=0;entryDy=0;edgeStyle=orthogonalEdgeStyle;" parent="1" source="46" target="2329" edge="1">
                    <mxGeometry width="50" height="50" relative="1" as="geometry">
                        <mxPoint x="132.54000000000002" y="300" as="sourcePoint"/>
                        <mxPoint x="312.54" y="795.0000000000002" as="targetPoint"/>
                    </mxGeometry>
                </mxCell>
                <mxCell id="2339" value="&lt;span style=&quot;background-color: rgb(251, 251, 251);&quot;&gt;rr:predicateObjectMap&lt;/span&gt;" style="text;html=1;align=center;verticalAlign=middle;resizable=0;points=[];labelBackgroundColor=#ffffff;" parent="2338" vertex="1" connectable="0">
                    <mxGeometry x="-0.1269" relative="1" as="geometry">
                        <mxPoint x="85" y="475" as="offset"/>
                    </mxGeometry>
                </mxCell>
                <mxCell id="2340" value="&lt;div style=&quot;line-height: 19px;&quot;&gt;&lt;div style=&quot;line-height: 19px;&quot;&gt;&quot;Sector&quot;&lt;/div&gt;&lt;/div&gt;" style="rounded=0;whiteSpace=wrap;html=1;snapToPoint=1;points=[[0.1,0],[0.2,0],[0.3,0],[0.4,0],[0.5,0],[0.6,0],[0.7,0],[0.8,0],[0.9,0],[0,0.1],[0,0.3],[0,0.5],[0,0.7],[0,0.9],[0.1,1],[0.2,1],[0.3,1],[0.4,1],[0.5,1],[0.6,1],[0.7,1],[0.8,1],[0.9,1],[1,0.1],[1,0.3],[1,0.5],[1,0.7],[1,0.9]];" parent="1" vertex="1">
                    <mxGeometry x="627.46" y="1100" width="80" height="30" as="geometry"/>
                </mxCell>
                <mxCell id="2341" value="rml:reference" style="rounded=0;orthogonalLoop=1;jettySize=auto;html=1;fontSize=12;exitX=0.4;exitY=0;exitDx=0;exitDy=0;edgeStyle=orthogonalEdgeStyle;entryX=0;entryY=0.5;entryDx=0;entryDy=0;" parent="1" source="2342" target="2340" edge="1">
                    <mxGeometry x="0.0755" relative="1" as="geometry">
                        <mxPoint x="557.4552941176471" y="1104.7058823529412" as="sourcePoint"/>
                        <mxPoint x="717.22" y="1145.0000000000002" as="targetPoint"/>
                        <mxPoint as="offset"/>
                    </mxGeometry>
                </mxCell>
                <mxCell id="2342" value="&lt;div style=&quot;line-height: 19px;&quot;&gt;&lt;div style=&quot;line-height: 19px;&quot;&gt;_b21s&lt;/div&gt;&lt;/div&gt;" style="rounded=0;whiteSpace=wrap;html=1;snapToPoint=1;points=[[0.1,0],[0.2,0],[0.3,0],[0.4,0],[0.5,0],[0.6,0],[0.7,0],[0.8,0],[0.9,0],[0,0.1],[0,0.3],[0,0.5],[0,0.7],[0,0.9],[0.1,1],[0.2,1],[0.3,1],[0.4,1],[0.5,1],[0.6,1],[0.7,1],[0.8,1],[0.9,1],[1,0.1],[1,0.3],[1,0.5],[1,0.7],[1,0.9]];fontStyle=4" parent="1" vertex="1">
                    <mxGeometry x="457.46" y="1140" width="60" height="30" as="geometry"/>
                </mxCell>
                <mxCell id="2343" value="rr:termType" style="rounded=0;orthogonalLoop=1;jettySize=auto;html=1;fontSize=12;exitX=1;exitY=0.5;exitDx=0;exitDy=0;edgeStyle=orthogonalEdgeStyle;entryX=0;entryY=0.5;entryDx=0;entryDy=0;" parent="1" source="2342" target="2344" edge="1">
                    <mxGeometry x="0.0833" relative="1" as="geometry">
                        <mxPoint x="527.46" y="1155" as="sourcePoint"/>
                        <mxPoint x="763.22" y="1185.0000000000002" as="targetPoint"/>
                        <mxPoint as="offset"/>
                    </mxGeometry>
                </mxCell>
                <mxCell id="2344" value="&lt;div style=&quot;line-height: 19px;&quot;&gt;&lt;div style=&quot;line-height: 19px;&quot;&gt;rr:IRI&lt;/div&gt;&lt;/div&gt;" style="rounded=0;whiteSpace=wrap;html=1;snapToPoint=1;points=[[0.1,0],[0.2,0],[0.3,0],[0.4,0],[0.5,0],[0.6,0],[0.7,0],[0.8,0],[0.9,0],[0,0.1],[0,0.3],[0,0.5],[0,0.7],[0,0.9],[0.1,1],[0.2,1],[0.3,1],[0.4,1],[0.5,1],[0.6,1],[0.7,1],[0.8,1],[0.9,1],[1,0.1],[1,0.3],[1,0.5],[1,0.7],[1,0.9]];fontStyle=4" parent="1" vertex="1">
                    <mxGeometry x="637.46" y="1140" width="60" height="30" as="geometry"/>
                </mxCell>
                <mxCell id="2349" value="_b18i" style="rounded=0;whiteSpace=wrap;html=1;snapToPoint=1;points=[[0.1,0],[0.2,0],[0.3,0],[0.4,0],[0.5,0],[0.6,0],[0.7,0],[0.8,0],[0.9,0],[0,0.1],[0,0.3],[0,0.5],[0,0.7],[0,0.9],[0.1,1],[0.2,1],[0.3,1],[0.4,1],[0.5,1],[0.6,1],[0.7,1],[0.8,1],[0.9,1],[1,0.1],[1,0.3],[1,0.5],[1,0.7],[1,0.9]];fontStyle=4" parent="1" vertex="1">
                    <mxGeometry x="300" y="860.0000000000002" width="60" height="30" as="geometry"/>
                </mxCell>
                <mxCell id="2350" value="rr:predicate" style="edgeStyle=orthogonalEdgeStyle;rounded=0;orthogonalLoop=1;jettySize=auto;html=1;fontSize=12;entryX=0;entryY=0.5;entryDx=0;entryDy=0;" parent="1" source="2349" target="2351" edge="1">
                    <mxGeometry x="0.3115" relative="1" as="geometry">
                        <mxPoint x="400" y="874.5000000000002" as="sourcePoint"/>
                        <mxPoint x="540" y="874.5" as="targetPoint"/>
                        <Array as="points">
                            <mxPoint x="330" y="835"/>
                        </Array>
                        <mxPoint as="offset"/>
                    </mxGeometry>
                </mxCell>
                <mxCell id="2351" value="s4city:refersToTime" style="rounded=0;whiteSpace=wrap;html=1;snapToPoint=1;fontStyle=4" parent="1" vertex="1">
                    <mxGeometry x="450" y="820" width="135" height="30" as="geometry"/>
                </mxCell>
                <mxCell id="2352" value="rr:parentTriplesMap" style="rounded=0;orthogonalLoop=1;jettySize=auto;html=1;fontSize=12;exitX=0.4;exitY=0;exitDx=0;exitDy=0;edgeStyle=orthogonalEdgeStyle;entryX=0;entryY=0.5;entryDx=0;entryDy=0;" parent="1" source="2353" target="2364" edge="1">
                    <mxGeometry x="0.0755" relative="1" as="geometry">
                        <mxPoint x="549.9952941176471" y="874.7058823529412" as="sourcePoint"/>
                        <mxPoint x="645" y="884.9999999999995" as="targetPoint"/>
                        <mxPoint as="offset"/>
                    </mxGeometry>
                </mxCell>
                <mxCell id="2353" value="&lt;div style=&quot;line-height: 19px;&quot;&gt;&lt;div style=&quot;line-height: 19px;&quot;&gt;_b19i&lt;/div&gt;&lt;/div&gt;" style="rounded=0;whiteSpace=wrap;html=1;snapToPoint=1;points=[[0.1,0],[0.2,0],[0.3,0],[0.4,0],[0.5,0],[0.6,0],[0.7,0],[0.8,0],[0.9,0],[0,0.1],[0,0.3],[0,0.5],[0,0.7],[0,0.9],[0.1,1],[0.2,1],[0.3,1],[0.4,1],[0.5,1],[0.6,1],[0.7,1],[0.8,1],[0.9,1],[1,0.1],[1,0.3],[1,0.5],[1,0.7],[1,0.9]];fontStyle=4" parent="1" vertex="1">
                    <mxGeometry x="450" y="910" width="60" height="30" as="geometry"/>
                </mxCell>
                <mxCell id="2354" value="rr:objectMap" style="rounded=0;orthogonalLoop=1;jettySize=auto;html=1;fontSize=12;exitX=0.5;exitY=1;exitDx=0;exitDy=0;edgeStyle=orthogonalEdgeStyle;" parent="1" source="2349" target="2353" edge="1">
                    <mxGeometry x="0.2289" relative="1" as="geometry">
                        <mxPoint x="330.0005882352941" y="925" as="sourcePoint"/>
                        <mxPoint x="490.53" y="965.0000000000002" as="targetPoint"/>
                        <Array as="points">
                            <mxPoint x="330" y="925"/>
                        </Array>
                        <mxPoint as="offset"/>
                    </mxGeometry>
                </mxCell>
                <mxCell id="2355" value="rr:joinCondition" style="rounded=0;orthogonalLoop=1;jettySize=auto;html=1;fontSize=12;exitX=0.4;exitY=1;exitDx=0;exitDy=0;edgeStyle=orthogonalEdgeStyle;entryX=0;entryY=0.5;entryDx=0;entryDy=0;" parent="1" source="2353" target="2356" edge="1">
                    <mxGeometry x="0.3878" relative="1" as="geometry">
                        <mxPoint x="510" y="950" as="sourcePoint"/>
                        <mxPoint x="745.76" y="955.0000000000002" as="targetPoint"/>
                        <mxPoint as="offset"/>
                    </mxGeometry>
                </mxCell>
                <mxCell id="2356" value="&lt;div style=&quot;line-height: 19px;&quot;&gt;&lt;div style=&quot;line-height: 19px;&quot;&gt;_b5&lt;/div&gt;&lt;/div&gt;" style="rounded=0;whiteSpace=wrap;html=1;snapToPoint=1;points=[[0.1,0],[0.2,0],[0.3,0],[0.4,0],[0.5,0],[0.6,0],[0.7,0],[0.8,0],[0.9,0],[0,0.1],[0,0.3],[0,0.5],[0,0.7],[0,0.9],[0.1,1],[0.2,1],[0.3,1],[0.4,1],[0.5,1],[0.6,1],[0.7,1],[0.8,1],[0.9,1],[1,0.1],[1,0.3],[1,0.5],[1,0.7],[1,0.9]];fontStyle=4" parent="1" vertex="1">
                    <mxGeometry x="645" y="950" width="60" height="30" as="geometry"/>
                </mxCell>
                <mxCell id="2358" value="" style="endArrow=classic;html=1;exitX=0.5;exitY=1;exitDx=0;exitDy=0;endSize=8;rounded=0;entryX=0;entryY=0.5;entryDx=0;entryDy=0;edgeStyle=orthogonalEdgeStyle;" parent="1" source="46" target="2349" edge="1">
                    <mxGeometry width="50" height="50" relative="1" as="geometry">
                        <mxPoint x="130" y="450" as="sourcePoint"/>
                        <mxPoint x="310" y="945.0000000000002" as="targetPoint"/>
                    </mxGeometry>
                </mxCell>
                <mxCell id="2359" value="&lt;span style=&quot;background-color: rgb(251, 251, 251);&quot;&gt;rr:predicateObjectMap&lt;/span&gt;" style="text;html=1;align=center;verticalAlign=middle;resizable=0;points=[];labelBackgroundColor=#ffffff;" parent="2358" vertex="1" connectable="0">
                    <mxGeometry x="-0.1269" relative="1" as="geometry">
                        <mxPoint x="85" y="345" as="offset"/>
                    </mxGeometry>
                </mxCell>
                <mxCell id="2361" value="&quot;http://w3id.org/def/usage/resource/Interval/ZGZ-id-{AÑO&lt;span style=&quot;background-color: initial;&quot;&gt;}&quot;&lt;/span&gt;" style="rounded=0;whiteSpace=wrap;html=1;snapToPoint=1;points=[[0.1,0],[0.2,0],[0.3,0],[0.4,0],[0.5,0],[0.6,0],[0.7,0],[0.8,0],[0.9,0],[0,0.1],[0,0.3],[0,0.5],[0,0.7],[0,0.9],[0.1,1],[0.2,1],[0.3,1],[0.4,1],[0.5,1],[0.6,1],[0.7,1],[0.8,1],[0.9,1],[1,0.1],[1,0.3],[1,0.5],[1,0.7],[1,0.9]];" parent="1" vertex="1">
                    <mxGeometry x="1064" y="920" width="405" height="30" as="geometry"/>
                </mxCell>
                <mxCell id="2362" value="rr:template" style="rounded=0;orthogonalLoop=1;jettySize=auto;html=1;fontSize=12;entryX=0;entryY=0.5;entryDx=0;entryDy=0;exitX=0.5;exitY=0;exitDx=0;exitDy=0;edgeStyle=orthogonalEdgeStyle;" parent="1" source="2371" target="2361" edge="1">
                    <mxGeometry x="-0.0476" relative="1" as="geometry">
                        <mxPoint x="939" y="935" as="sourcePoint"/>
                        <mxPoint x="1079" y="990" as="targetPoint"/>
                        <mxPoint as="offset"/>
                    </mxGeometry>
                </mxCell>
                <mxCell id="2363" value="&lt;div style=&quot;line-height: 19px;&quot;&gt;rr:TriplesMap&lt;/div&gt;" style="rounded=0;whiteSpace=wrap;html=1;snapToPoint=1;points=[[0.1,0],[0.2,0],[0.3,0],[0.4,0],[0.5,0],[0.6,0],[0.7,0],[0.8,0],[0.9,0],[0,0.1],[0,0.3],[0,0.5],[0,0.7],[0,0.9],[0.1,1],[0.2,1],[0.3,1],[0.4,1],[0.5,1],[0.6,1],[0.7,1],[0.8,1],[0.9,1],[1,0.1],[1,0.3],[1,0.5],[1,0.7],[1,0.9]];" parent="1" vertex="1">
                    <mxGeometry x="715" y="840" width="100" height="30" as="geometry"/>
                </mxCell>
                <mxCell id="2364" value="&lt;u&gt;&amp;lt;#Interval&amp;gt;&lt;/u&gt;" style="rounded=0;whiteSpace=wrap;html=1;snapToPoint=1;points=[[0.1,0],[0.2,0],[0.3,0],[0.4,0],[0.5,0],[0.6,0],[0.7,0],[0.8,0],[0.9,0],[0,0.1],[0,0.3],[0,0.5],[0,0.7],[0,0.9],[0.1,1],[0.2,1],[0.3,1],[0.4,1],[0.5,1],[0.6,1],[0.7,1],[0.8,1],[0.9,1],[1,0.1],[1,0.3],[1,0.5],[1,0.7],[1,0.9]];" parent="1" vertex="1">
                    <mxGeometry x="715" y="870" width="100" height="30" as="geometry"/>
                </mxCell>
                <mxCell id="2365" value="" style="endArrow=classic;html=1;exitX=1;exitY=0.5;exitDx=0;exitDy=0;entryX=0;entryY=0.5;entryDx=0;entryDy=0;endSize=8;edgeStyle=orthogonalEdgeStyle;rounded=0;" parent="1" source="2364" target="2367" edge="1">
                    <mxGeometry width="50" height="50" relative="1" as="geometry">
                        <mxPoint x="813.0000000000005" y="1005" as="sourcePoint"/>
                        <mxPoint x="940" y="935" as="targetPoint"/>
                    </mxGeometry>
                </mxCell>
                <mxCell id="2366" value="&lt;span style=&quot;background-color: rgb(251, 251, 251);&quot;&gt;rml:logicalSource&lt;/span&gt;" style="text;html=1;align=center;verticalAlign=middle;resizable=0;points=[];labelBackgroundColor=#ffffff;" parent="2365" vertex="1" connectable="0">
                    <mxGeometry x="-0.1269" relative="1" as="geometry">
                        <mxPoint as="offset"/>
                    </mxGeometry>
                </mxCell>
                <mxCell id="2367" value="_b1" style="rounded=0;whiteSpace=wrap;html=1;snapToPoint=1;points=[[0.1,0],[0.2,0],[0.3,0],[0.4,0],[0.5,0],[0.6,0],[0.7,0],[0.8,0],[0.9,0],[0,0.1],[0,0.3],[0,0.5],[0,0.7],[0,0.9],[0.1,1],[0.2,1],[0.3,1],[0.4,1],[0.5,1],[0.6,1],[0.7,1],[0.8,1],[0.9,1],[1,0.1],[1,0.3],[1,0.5],[1,0.7],[1,0.9]];fontStyle=4" parent="1" vertex="1">
                    <mxGeometry x="935" y="870.0000000000002" width="60" height="30" as="geometry"/>
                </mxCell>
                <mxCell id="2368" value="" style="endArrow=classic;html=1;exitX=0.5;exitY=1;exitDx=0;exitDy=0;endSize=8;rounded=0;entryX=0;entryY=0.5;entryDx=0;entryDy=0;edgeStyle=orthogonalEdgeStyle;" parent="1" source="2364" target="2371" edge="1">
                    <mxGeometry width="50" height="50" relative="1" as="geometry">
                        <mxPoint x="775" y="1000" as="sourcePoint"/>
                        <mxPoint x="905" y="970" as="targetPoint"/>
                    </mxGeometry>
                </mxCell>
                <mxCell id="2369" value="&lt;span style=&quot;background-color: rgb(251, 251, 251);&quot;&gt;rr:subjectMap&lt;/span&gt;" style="text;html=1;align=center;verticalAlign=middle;resizable=0;points=[];labelBackgroundColor=#ffffff;" parent="2368" vertex="1" connectable="0">
                    <mxGeometry x="-0.1269" relative="1" as="geometry">
                        <mxPoint x="45" as="offset"/>
                    </mxGeometry>
                </mxCell>
                <mxCell id="2370" value="&lt;div style=&quot;line-height: 19px;&quot;&gt;&lt;div style=&quot;line-height: 19px;&quot;&gt;time:DateTimeInterval&lt;/div&gt;&lt;/div&gt;" style="rounded=0;whiteSpace=wrap;html=1;snapToPoint=1;points=[[0.1,0],[0.2,0],[0.3,0],[0.4,0],[0.5,0],[0.6,0],[0.7,0],[0.8,0],[0.9,0],[0,0.1],[0,0.3],[0,0.5],[0,0.7],[0,0.9],[0.1,1],[0.2,1],[0.3,1],[0.4,1],[0.5,1],[0.6,1],[0.7,1],[0.8,1],[0.9,1],[1,0.1],[1,0.3],[1,0.5],[1,0.7],[1,0.9]];fontStyle=4" parent="1" vertex="1">
                    <mxGeometry x="1165" y="960" width="145" height="30" as="geometry"/>
                </mxCell>
                <mxCell id="2371" value="_b6i" style="rounded=0;whiteSpace=wrap;html=1;snapToPoint=1;points=[[0.1,0],[0.2,0],[0.3,0],[0.4,0],[0.5,0],[0.6,0],[0.7,0],[0.8,0],[0.9,0],[0,0.1],[0,0.3],[0,0.5],[0,0.7],[0,0.9],[0.1,1],[0.2,1],[0.3,1],[0.4,1],[0.5,1],[0.6,1],[0.7,1],[0.8,1],[0.9,1],[1,0.1],[1,0.3],[1,0.5],[1,0.7],[1,0.9]];fontStyle=4" parent="1" vertex="1">
                    <mxGeometry x="935" y="960.0000000000002" width="60" height="30" as="geometry"/>
                </mxCell>
                <mxCell id="2372" value="rr:class" style="rounded=0;orthogonalLoop=1;jettySize=auto;html=1;fontSize=12;" parent="1" source="2371" target="2370" edge="1">
                    <mxGeometry relative="1" as="geometry">
                        <mxPoint x="995" y="1015.0000000000002" as="sourcePoint"/>
                        <mxPoint x="1155" y="1015.0000000000002" as="targetPoint"/>
                    </mxGeometry>
                </mxCell>
                <mxCell id="2373" value="&lt;div style=&quot;line-height: 19px;&quot;&gt;&lt;div style=&quot;line-height: 19px;&quot;&gt;usage-g:ZGZ-Arbolado&lt;/div&gt;&lt;/div&gt;" style="rounded=0;whiteSpace=wrap;html=1;snapToPoint=1;points=[[0.1,0],[0.2,0],[0.3,0],[0.4,0],[0.5,0],[0.6,0],[0.7,0],[0.8,0],[0.9,0],[0,0.1],[0,0.3],[0,0.5],[0,0.7],[0,0.9],[0.1,1],[0.2,1],[0.3,1],[0.4,1],[0.5,1],[0.6,1],[0.7,1],[0.8,1],[0.9,1],[1,0.1],[1,0.3],[1,0.5],[1,0.7],[1,0.9]];fontStyle=4" parent="1" vertex="1">
                    <mxGeometry x="1165" y="1010" width="90" height="30" as="geometry"/>
                </mxCell>
                <mxCell id="2374" value="rr:graph" style="rounded=0;orthogonalLoop=1;jettySize=auto;html=1;fontSize=12;exitX=0.5;exitY=1;exitDx=0;exitDy=0;edgeStyle=orthogonalEdgeStyle;" parent="1" source="2371" target="2373" edge="1">
                    <mxGeometry relative="1" as="geometry">
                        <mxPoint x="965.0005882352941" y="1025" as="sourcePoint"/>
                        <mxPoint x="1125.53" y="1065.0000000000002" as="targetPoint"/>
                        <Array as="points">
                            <mxPoint x="965" y="1025"/>
                        </Array>
                    </mxGeometry>
                </mxCell>
                <mxCell id="2376" value="_b7i" style="rounded=0;whiteSpace=wrap;html=1;snapToPoint=1;points=[[0.1,0],[0.2,0],[0.3,0],[0.4,0],[0.5,0],[0.6,0],[0.7,0],[0.8,0],[0.9,0],[0,0.1],[0,0.3],[0,0.5],[0,0.7],[0,0.9],[0.1,1],[0.2,1],[0.3,1],[0.4,1],[0.5,1],[0.6,1],[0.7,1],[0.8,1],[0.9,1],[1,0.1],[1,0.3],[1,0.5],[1,0.7],[1,0.9]];fontStyle=4" parent="1" vertex="1">
                    <mxGeometry x="931.56" y="1110.0000000000002" width="60" height="30" as="geometry"/>
                </mxCell>
                <mxCell id="2377" value="rr:predicate" style="edgeStyle=orthogonalEdgeStyle;rounded=0;orthogonalLoop=1;jettySize=auto;html=1;fontSize=12;entryX=0;entryY=0.5;entryDx=0;entryDy=0;" parent="1" source="2376" target="2378" edge="1">
                    <mxGeometry x="0.3115" relative="1" as="geometry">
                        <mxPoint x="1031.56" y="1124.5000000000002" as="sourcePoint"/>
                        <mxPoint x="1171.56" y="1124.5" as="targetPoint"/>
                        <Array as="points">
                            <mxPoint x="961.56" y="1085"/>
                        </Array>
                        <mxPoint as="offset"/>
                    </mxGeometry>
                </mxCell>
                <mxCell id="2378" value="time:hasDateTimeDescription" style="rounded=0;whiteSpace=wrap;html=1;snapToPoint=1;fontStyle=4" parent="1" vertex="1">
                    <mxGeometry x="1081.56" y="1070" width="188.44" height="30" as="geometry"/>
                </mxCell>
                <mxCell id="2380" value="&lt;div style=&quot;line-height: 19px;&quot;&gt;&lt;div style=&quot;line-height: 19px;&quot;&gt;_b8i&lt;/div&gt;&lt;/div&gt;" style="rounded=0;whiteSpace=wrap;html=1;snapToPoint=1;points=[[0.1,0],[0.2,0],[0.3,0],[0.4,0],[0.5,0],[0.6,0],[0.7,0],[0.8,0],[0.9,0],[0,0.1],[0,0.3],[0,0.5],[0,0.7],[0,0.9],[0.1,1],[0.2,1],[0.3,1],[0.4,1],[0.5,1],[0.6,1],[0.7,1],[0.8,1],[0.9,1],[1,0.1],[1,0.3],[1,0.5],[1,0.7],[1,0.9]];fontStyle=4" parent="1" vertex="1">
                    <mxGeometry x="1081.56" y="1160" width="60" height="30" as="geometry"/>
                </mxCell>
                <mxCell id="2381" value="rr:objectMap" style="rounded=0;orthogonalLoop=1;jettySize=auto;html=1;fontSize=12;exitX=0.5;exitY=1;exitDx=0;exitDy=0;edgeStyle=orthogonalEdgeStyle;" parent="1" source="2376" target="2380" edge="1">
                    <mxGeometry x="0.2289" relative="1" as="geometry">
                        <mxPoint x="961.5605882352941" y="1175" as="sourcePoint"/>
                        <mxPoint x="1122.09" y="1215.0000000000002" as="targetPoint"/>
                        <Array as="points">
                            <mxPoint x="961.56" y="1175"/>
                        </Array>
                        <mxPoint as="offset"/>
                    </mxGeometry>
                </mxCell>
                <mxCell id="2384" value="" style="endArrow=classic;html=1;exitX=0.5;exitY=1;exitDx=0;exitDy=0;endSize=8;rounded=0;entryX=0;entryY=0.5;entryDx=0;entryDy=0;edgeStyle=orthogonalEdgeStyle;" parent="1" source="2364" target="2376" edge="1">
                    <mxGeometry width="50" height="50" relative="1" as="geometry">
                        <mxPoint x="761.56" y="910" as="sourcePoint"/>
                        <mxPoint x="941.56" y="1025.0000000000002" as="targetPoint"/>
                    </mxGeometry>
                </mxCell>
                <mxCell id="2385" value="&lt;span style=&quot;background-color: rgb(251, 251, 251);&quot;&gt;rr:predicateObjectMap&lt;/span&gt;" style="text;html=1;align=center;verticalAlign=middle;resizable=0;points=[];labelBackgroundColor=#ffffff;" parent="2384" vertex="1" connectable="0">
                    <mxGeometry x="-0.1269" relative="1" as="geometry">
                        <mxPoint x="80" y="64" as="offset"/>
                    </mxGeometry>
                </mxCell>
                <mxCell id="2387" value="&quot;http://w3id.org/def/usage/resource/Year/ZGZ-id-{AÑO&lt;span style=&quot;background-color: initial;&quot;&gt;}&quot;&lt;/span&gt;" style="rounded=0;whiteSpace=wrap;html=1;snapToPoint=1;points=[[0.1,0],[0.2,0],[0.3,0],[0.4,0],[0.5,0],[0.6,0],[0.7,0],[0.8,0],[0.9,0],[0,0.1],[0,0.3],[0,0.5],[0,0.7],[0,0.9],[0.1,1],[0.2,1],[0.3,1],[0.4,1],[0.5,1],[0.6,1],[0.7,1],[0.8,1],[0.9,1],[1,0.1],[1,0.3],[1,0.5],[1,0.7],[1,0.9]];" parent="1" vertex="1">
                    <mxGeometry x="1699" y="1170" width="405" height="30" as="geometry"/>
                </mxCell>
                <mxCell id="2388" value="rr:template" style="rounded=0;orthogonalLoop=1;jettySize=auto;html=1;fontSize=12;entryX=0;entryY=0.5;entryDx=0;entryDy=0;exitX=0.5;exitY=0;exitDx=0;exitDy=0;edgeStyle=orthogonalEdgeStyle;" parent="1" source="2397" target="2387" edge="1">
                    <mxGeometry x="0.2097" relative="1" as="geometry">
                        <mxPoint x="1574" y="1185" as="sourcePoint"/>
                        <mxPoint x="1714" y="1240" as="targetPoint"/>
                        <mxPoint as="offset"/>
                    </mxGeometry>
                </mxCell>
                <mxCell id="2389" value="&lt;div style=&quot;line-height: 19px;&quot;&gt;rr:TriplesMap&lt;/div&gt;" style="rounded=0;whiteSpace=wrap;html=1;snapToPoint=1;points=[[0.1,0],[0.2,0],[0.3,0],[0.4,0],[0.5,0],[0.6,0],[0.7,0],[0.8,0],[0.9,0],[0,0.1],[0,0.3],[0,0.5],[0,0.7],[0,0.9],[0.1,1],[0.2,1],[0.3,1],[0.4,1],[0.5,1],[0.6,1],[0.7,1],[0.8,1],[0.9,1],[1,0.1],[1,0.3],[1,0.5],[1,0.7],[1,0.9]];" parent="1" vertex="1">
                    <mxGeometry x="1350" y="1090" width="100" height="30" as="geometry"/>
                </mxCell>
                <mxCell id="2390" value="&lt;u&gt;&amp;lt;#Year&amp;gt;&lt;/u&gt;" style="rounded=0;whiteSpace=wrap;html=1;snapToPoint=1;points=[[0.1,0],[0.2,0],[0.3,0],[0.4,0],[0.5,0],[0.6,0],[0.7,0],[0.8,0],[0.9,0],[0,0.1],[0,0.3],[0,0.5],[0,0.7],[0,0.9],[0.1,1],[0.2,1],[0.3,1],[0.4,1],[0.5,1],[0.6,1],[0.7,1],[0.8,1],[0.9,1],[1,0.1],[1,0.3],[1,0.5],[1,0.7],[1,0.9]];" parent="1" vertex="1">
                    <mxGeometry x="1350" y="1120" width="100" height="30" as="geometry"/>
                </mxCell>
                <mxCell id="2391" value="" style="endArrow=classic;html=1;exitX=1;exitY=0.5;exitDx=0;exitDy=0;entryX=0;entryY=0.5;entryDx=0;entryDy=0;endSize=8;edgeStyle=orthogonalEdgeStyle;rounded=0;" parent="1" source="2390" target="2393" edge="1">
                    <mxGeometry width="50" height="50" relative="1" as="geometry">
                        <mxPoint x="1448.0000000000005" y="1255" as="sourcePoint"/>
                        <mxPoint x="1575" y="1185" as="targetPoint"/>
                    </mxGeometry>
                </mxCell>
                <mxCell id="2392" value="&lt;span style=&quot;background-color: rgb(251, 251, 251);&quot;&gt;rml:logicalSource&lt;/span&gt;" style="text;html=1;align=center;verticalAlign=middle;resizable=0;points=[];labelBackgroundColor=#ffffff;" parent="2391" vertex="1" connectable="0">
                    <mxGeometry x="-0.1269" relative="1" as="geometry">
                        <mxPoint as="offset"/>
                    </mxGeometry>
                </mxCell>
                <mxCell id="2393" value="_b1" style="rounded=0;whiteSpace=wrap;html=1;snapToPoint=1;points=[[0.1,0],[0.2,0],[0.3,0],[0.4,0],[0.5,0],[0.6,0],[0.7,0],[0.8,0],[0.9,0],[0,0.1],[0,0.3],[0,0.5],[0,0.7],[0,0.9],[0.1,1],[0.2,1],[0.3,1],[0.4,1],[0.5,1],[0.6,1],[0.7,1],[0.8,1],[0.9,1],[1,0.1],[1,0.3],[1,0.5],[1,0.7],[1,0.9]];fontStyle=4" parent="1" vertex="1">
                    <mxGeometry x="1570" y="1120.0000000000002" width="60" height="30" as="geometry"/>
                </mxCell>
                <mxCell id="2394" value="" style="endArrow=classic;html=1;exitX=0.5;exitY=1;exitDx=0;exitDy=0;endSize=8;rounded=0;entryX=0;entryY=0.5;entryDx=0;entryDy=0;edgeStyle=orthogonalEdgeStyle;" parent="1" source="2390" target="2397" edge="1">
                    <mxGeometry width="50" height="50" relative="1" as="geometry">
                        <mxPoint x="1410" y="1250" as="sourcePoint"/>
                        <mxPoint x="1540" y="1220" as="targetPoint"/>
                    </mxGeometry>
                </mxCell>
                <mxCell id="2395" value="&lt;span style=&quot;background-color: rgb(251, 251, 251);&quot;&gt;rr:subjectMap&lt;/span&gt;" style="text;html=1;align=center;verticalAlign=middle;resizable=0;points=[];labelBackgroundColor=#ffffff;" parent="2394" vertex="1" connectable="0">
                    <mxGeometry x="-0.1269" relative="1" as="geometry">
                        <mxPoint x="45" as="offset"/>
                    </mxGeometry>
                </mxCell>
                <mxCell id="2396" value="&lt;div style=&quot;line-height: 19px;&quot;&gt;&lt;div style=&quot;line-height: 19px;&quot;&gt;time:DateTimeDescription&lt;/div&gt;&lt;/div&gt;" style="rounded=0;whiteSpace=wrap;html=1;snapToPoint=1;points=[[0.1,0],[0.2,0],[0.3,0],[0.4,0],[0.5,0],[0.6,0],[0.7,0],[0.8,0],[0.9,0],[0,0.1],[0,0.3],[0,0.5],[0,0.7],[0,0.9],[0.1,1],[0.2,1],[0.3,1],[0.4,1],[0.5,1],[0.6,1],[0.7,1],[0.8,1],[0.9,1],[1,0.1],[1,0.3],[1,0.5],[1,0.7],[1,0.9]];fontStyle=4" parent="1" vertex="1">
                    <mxGeometry x="1800" y="1210" width="145" height="30" as="geometry"/>
                </mxCell>
                <mxCell id="2397" value="_b6y" style="rounded=0;whiteSpace=wrap;html=1;snapToPoint=1;points=[[0.1,0],[0.2,0],[0.3,0],[0.4,0],[0.5,0],[0.6,0],[0.7,0],[0.8,0],[0.9,0],[0,0.1],[0,0.3],[0,0.5],[0,0.7],[0,0.9],[0.1,1],[0.2,1],[0.3,1],[0.4,1],[0.5,1],[0.6,1],[0.7,1],[0.8,1],[0.9,1],[1,0.1],[1,0.3],[1,0.5],[1,0.7],[1,0.9]];fontStyle=4" parent="1" vertex="1">
                    <mxGeometry x="1570" y="1210.0000000000002" width="60" height="30" as="geometry"/>
                </mxCell>
                <mxCell id="2398" value="rr:class" style="rounded=0;orthogonalLoop=1;jettySize=auto;html=1;fontSize=12;" parent="1" source="2397" target="2396" edge="1">
                    <mxGeometry relative="1" as="geometry">
                        <mxPoint x="1630" y="1265.0000000000002" as="sourcePoint"/>
                        <mxPoint x="1790" y="1265.0000000000002" as="targetPoint"/>
                    </mxGeometry>
                </mxCell>
                <mxCell id="2399" value="&lt;div style=&quot;line-height: 19px;&quot;&gt;&lt;div style=&quot;line-height: 19px;&quot;&gt;usage-g:ZGZ-Arbolado&lt;/div&gt;&lt;/div&gt;" style="rounded=0;whiteSpace=wrap;html=1;snapToPoint=1;points=[[0.1,0],[0.2,0],[0.3,0],[0.4,0],[0.5,0],[0.6,0],[0.7,0],[0.8,0],[0.9,0],[0,0.1],[0,0.3],[0,0.5],[0,0.7],[0,0.9],[0.1,1],[0.2,1],[0.3,1],[0.4,1],[0.5,1],[0.6,1],[0.7,1],[0.8,1],[0.9,1],[1,0.1],[1,0.3],[1,0.5],[1,0.7],[1,0.9]];fontStyle=4" parent="1" vertex="1">
                    <mxGeometry x="1800" y="1260" width="90" height="30" as="geometry"/>
                </mxCell>
                <mxCell id="2400" value="rr:graph" style="rounded=0;orthogonalLoop=1;jettySize=auto;html=1;fontSize=12;exitX=0.5;exitY=1;exitDx=0;exitDy=0;edgeStyle=orthogonalEdgeStyle;" parent="1" source="2397" target="2399" edge="1">
                    <mxGeometry relative="1" as="geometry">
                        <mxPoint x="1600.0005882352941" y="1275" as="sourcePoint"/>
                        <mxPoint x="1760.53" y="1315.0000000000002" as="targetPoint"/>
                        <Array as="points">
                            <mxPoint x="1600" y="1275"/>
                        </Array>
                    </mxGeometry>
                </mxCell>
                <mxCell id="2401" value="&lt;div style=&quot;line-height: 19px;&quot;&gt;&lt;div style=&quot;line-height: 19px;&quot;&gt;&quot;AÑO&quot;&lt;br&gt;&lt;/div&gt;&lt;/div&gt;" style="rounded=0;whiteSpace=wrap;html=1;snapToPoint=1;points=[[0.1,0],[0.2,0],[0.3,0],[0.4,0],[0.5,0],[0.6,0],[0.7,0],[0.8,0],[0.9,0],[0,0.1],[0,0.3],[0,0.5],[0,0.7],[0,0.9],[0.1,1],[0.2,1],[0.3,1],[0.4,1],[0.5,1],[0.6,1],[0.7,1],[0.8,1],[0.9,1],[1,0.1],[1,0.3],[1,0.5],[1,0.7],[1,0.9]];" parent="1" vertex="1">
                    <mxGeometry x="1886.56" y="1370" width="83.44" height="30" as="geometry"/>
                </mxCell>
                <mxCell id="2402" value="_b7y" style="rounded=0;whiteSpace=wrap;html=1;snapToPoint=1;points=[[0.1,0],[0.2,0],[0.3,0],[0.4,0],[0.5,0],[0.6,0],[0.7,0],[0.8,0],[0.9,0],[0,0.1],[0,0.3],[0,0.5],[0,0.7],[0,0.9],[0.1,1],[0.2,1],[0.3,1],[0.4,1],[0.5,1],[0.6,1],[0.7,1],[0.8,1],[0.9,1],[1,0.1],[1,0.3],[1,0.5],[1,0.7],[1,0.9]];fontStyle=4" parent="1" vertex="1">
                    <mxGeometry x="1566.56" y="1360.0000000000002" width="60" height="30" as="geometry"/>
                </mxCell>
                <mxCell id="2403" value="rr:predicate" style="edgeStyle=orthogonalEdgeStyle;rounded=0;orthogonalLoop=1;jettySize=auto;html=1;fontSize=12;entryX=0;entryY=0.5;entryDx=0;entryDy=0;" parent="1" source="2402" target="2404" edge="1">
                    <mxGeometry x="0.3115" relative="1" as="geometry">
                        <mxPoint x="1666.56" y="1374.5000000000002" as="sourcePoint"/>
                        <mxPoint x="1806.56" y="1374.5" as="targetPoint"/>
                        <Array as="points">
                            <mxPoint x="1596.56" y="1335"/>
                        </Array>
                        <mxPoint as="offset"/>
                    </mxGeometry>
                </mxCell>
                <mxCell id="2404" value="time:year" style="rounded=0;whiteSpace=wrap;html=1;snapToPoint=1;fontStyle=4" parent="1" vertex="1">
                    <mxGeometry x="1716.56" y="1320" width="103.44" height="30" as="geometry"/>
                </mxCell>
                <mxCell id="2405" value="rml:reference" style="rounded=0;orthogonalLoop=1;jettySize=auto;html=1;fontSize=12;exitX=0.4;exitY=0;exitDx=0;exitDy=0;edgeStyle=orthogonalEdgeStyle;entryX=0;entryY=0.5;entryDx=0;entryDy=0;" parent="1" source="2406" target="2401" edge="1">
                    <mxGeometry x="0.0755" relative="1" as="geometry">
                        <mxPoint x="1816.555294117647" y="1374.7058823529412" as="sourcePoint"/>
                        <mxPoint x="1976.32" y="1415.0000000000002" as="targetPoint"/>
                        <mxPoint as="offset"/>
                    </mxGeometry>
                </mxCell>
                <mxCell id="2406" value="&lt;div style=&quot;line-height: 19px;&quot;&gt;&lt;div style=&quot;line-height: 19px;&quot;&gt;_b8y&lt;/div&gt;&lt;/div&gt;" style="rounded=0;whiteSpace=wrap;html=1;snapToPoint=1;points=[[0.1,0],[0.2,0],[0.3,0],[0.4,0],[0.5,0],[0.6,0],[0.7,0],[0.8,0],[0.9,0],[0,0.1],[0,0.3],[0,0.5],[0,0.7],[0,0.9],[0.1,1],[0.2,1],[0.3,1],[0.4,1],[0.5,1],[0.6,1],[0.7,1],[0.8,1],[0.9,1],[1,0.1],[1,0.3],[1,0.5],[1,0.7],[1,0.9]];fontStyle=4" parent="1" vertex="1">
                    <mxGeometry x="1716.56" y="1410" width="60" height="30" as="geometry"/>
                </mxCell>
                <mxCell id="2407" value="rr:objectMap" style="rounded=0;orthogonalLoop=1;jettySize=auto;html=1;fontSize=12;exitX=0.5;exitY=1;exitDx=0;exitDy=0;edgeStyle=orthogonalEdgeStyle;" parent="1" source="2402" target="2406" edge="1">
                    <mxGeometry x="0.2289" relative="1" as="geometry">
                        <mxPoint x="1596.560588235294" y="1425" as="sourcePoint"/>
                        <mxPoint x="1757.09" y="1465.0000000000002" as="targetPoint"/>
                        <Array as="points">
                            <mxPoint x="1596.56" y="1425"/>
                        </Array>
                        <mxPoint as="offset"/>
                    </mxGeometry>
                </mxCell>
                <mxCell id="2408" value="rr:datatype" style="rounded=0;orthogonalLoop=1;jettySize=auto;html=1;fontSize=12;exitX=1;exitY=0.5;exitDx=0;exitDy=0;edgeStyle=orthogonalEdgeStyle;entryX=0;entryY=0.5;entryDx=0;entryDy=0;" parent="1" source="2406" target="2409" edge="1">
                    <mxGeometry x="0.0755" relative="1" as="geometry">
                        <mxPoint x="1776.56" y="1450" as="sourcePoint"/>
                        <mxPoint x="2012.3199999999997" y="1455.0000000000002" as="targetPoint"/>
                        <mxPoint as="offset"/>
                    </mxGeometry>
                </mxCell>
                <mxCell id="2409" value="&lt;div style=&quot;line-height: 19px;&quot;&gt;&lt;div style=&quot;line-height: 19px;&quot;&gt;xsd:gYear&lt;/div&gt;&lt;/div&gt;" style="rounded=0;whiteSpace=wrap;html=1;snapToPoint=1;points=[[0.1,0],[0.2,0],[0.3,0],[0.4,0],[0.5,0],[0.6,0],[0.7,0],[0.8,0],[0.9,0],[0,0.1],[0,0.3],[0,0.5],[0,0.7],[0,0.9],[0.1,1],[0.2,1],[0.3,1],[0.4,1],[0.5,1],[0.6,1],[0.7,1],[0.8,1],[0.9,1],[1,0.1],[1,0.3],[1,0.5],[1,0.7],[1,0.9]];fontStyle=4" parent="1" vertex="1">
                    <mxGeometry x="1886.56" y="1410" width="84.94" height="30" as="geometry"/>
                </mxCell>
                <mxCell id="2410" value="" style="endArrow=classic;html=1;exitX=0.5;exitY=1;exitDx=0;exitDy=0;endSize=8;rounded=0;entryX=0;entryY=0.5;entryDx=0;entryDy=0;edgeStyle=orthogonalEdgeStyle;" parent="1" source="2390" target="2402" edge="1">
                    <mxGeometry width="50" height="50" relative="1" as="geometry">
                        <mxPoint x="1396.56" y="1160" as="sourcePoint"/>
                        <mxPoint x="1576.56" y="1275.0000000000002" as="targetPoint"/>
                    </mxGeometry>
                </mxCell>
                <mxCell id="2411" value="&lt;span style=&quot;background-color: rgb(251, 251, 251);&quot;&gt;rr:predicateObjectMap&lt;/span&gt;" style="text;html=1;align=center;verticalAlign=middle;resizable=0;points=[];labelBackgroundColor=#ffffff;" parent="2410" vertex="1" connectable="0">
                    <mxGeometry x="-0.1269" relative="1" as="geometry">
                        <mxPoint x="80" y="64" as="offset"/>
                    </mxGeometry>
                </mxCell>
                <mxCell id="2412" value="&lt;div style=&quot;line-height: 19px;&quot;&gt;&lt;div style=&quot;line-height: 19px;&quot;&gt;_b5&lt;/div&gt;&lt;/div&gt;" style="rounded=0;whiteSpace=wrap;html=1;snapToPoint=1;points=[[0.1,0],[0.2,0],[0.3,0],[0.4,0],[0.5,0],[0.6,0],[0.7,0],[0.8,0],[0.9,0],[0,0.1],[0,0.3],[0,0.5],[0,0.7],[0,0.9],[0.1,1],[0.2,1],[0.3,1],[0.4,1],[0.5,1],[0.6,1],[0.7,1],[0.8,1],[0.9,1],[1,0.1],[1,0.3],[1,0.5],[1,0.7],[1,0.9]];fontStyle=4" parent="1" vertex="1">
                    <mxGeometry x="1247.5" y="1210" width="60" height="30" as="geometry"/>
                </mxCell>
                <mxCell id="2413" value="rr:parentTriplesMap" style="rounded=0;orthogonalLoop=1;jettySize=auto;html=1;fontSize=12;exitX=0.5;exitY=0;exitDx=0;exitDy=0;edgeStyle=orthogonalEdgeStyle;entryX=0;entryY=0.5;entryDx=0;entryDy=0;" parent="1" source="2380" target="2390" edge="1">
                    <mxGeometry x="0.0755" relative="1" as="geometry">
                        <mxPoint x="1146" y="1145" as="sourcePoint"/>
                        <mxPoint x="1387" y="1120" as="targetPoint"/>
                        <mxPoint as="offset"/>
                    </mxGeometry>
                </mxCell>
                <mxCell id="2414" value="rr:joinCondition" style="rounded=0;orthogonalLoop=1;jettySize=auto;html=1;fontSize=12;exitX=0.5;exitY=1;exitDx=0;exitDy=0;edgeStyle=orthogonalEdgeStyle;entryX=0;entryY=0.5;entryDx=0;entryDy=0;" parent="1" source="2380" target="2412" edge="1">
                    <mxGeometry x="0.0931" relative="1" as="geometry">
                        <mxPoint x="1146" y="1175" as="sourcePoint"/>
                        <mxPoint x="1417.7600000000002" y="1190.0000000000002" as="targetPoint"/>
                        <mxPoint as="offset"/>
                    </mxGeometry>
                </mxCell>
            </root>
        </mxGraphModel>
    </diagram>
</mxfile>